<svg xmlns="http://www.w3.org/2000/svg" width="60" height="138" viewBox="0 0 60 138" fill="none">
<path d="M9.94532 132.68C7.0432 130.617 11.2351 120.743 11.2351 118.238C12.267 119.063 40.5788 120.35 54.6057 120.891C54.5519 122.315 54.4767 126.078 54.6057 129.733C54.7669 134.302 39.9338 136.66 36.7093 137.691C33.4847 138.723 12.8474 134.744 9.94532 132.68Z" fill="#191919"/>
<path d="M29.355 130.077C34.7143 130.035 40.0577 129.718 45.3694 128.996C48.2466 128.605 51.0808 128.018 53.7859 126.882C55.0812 126.338 55.8184 125.48 55.8772 124.094C55.9316 122.805 56.2475 121.734 57.1907 120.705C58.5223 119.252 58.8292 117.27 59.1553 115.366C59.6501 112.48 59.2051 109.713 58.1623 106.999C57.4387 105.115 57.0967 103.138 57.2462 101.118C57.4613 98.1846 56.8397 95.4274 55.6712 92.7619C55.3836 92.1063 55.1356 91.4337 54.8434 90.7815C53.7134 88.2531 53.9399 85.5763 54.001 82.9244C54.0372 81.3244 54.1663 79.7267 54.3916 78.1381C54.4234 77.9128 54.4528 77.7305 54.6475 77.5516C55.4549 76.8122 55.6417 75.818 55.2307 74.7593C54.8774 73.8478 54.2309 73.122 53.6964 72.3282C53.2763 71.7032 53.0283 71.077 53.06 70.2832C53.1393 68.3074 52.0897 66.9418 50.4738 65.951C48.2081 64.5617 45.6762 63.9785 43.0923 63.615C37.7693 62.8666 32.4202 62.7737 27.0587 62.99C24.194 63.1055 21.3315 63.2233 18.4871 63.5958C16.4637 63.8608 14.4798 64.2944 12.5889 65.0882C10.801 65.8378 9.42179 66.9701 8.95754 68.9652C8.87488 69.3208 8.83752 69.682 8.88168 70.0319C8.95867 70.649 8.71976 71.1178 8.34609 71.573C7.60556 72.4754 6.80841 73.3337 6.21734 74.3517C5.6376 75.3492 5.50965 76.3717 6.05542 77.4202C6.1845 77.6682 6.14374 77.8811 6.08939 78.1245C5.73271 79.7403 5.34093 81.3505 5.04653 82.9788C4.59587 85.4755 4.76345 87.9711 5.19146 90.4588C5.75536 93.7403 6.02598 97.033 5.62967 100.361C5.47681 101.643 5.79499 102.914 5.87425 104.193C6.02258 106.582 5.75649 108.938 5.43038 111.292C5.18241 113.082 4.84611 114.86 4.61172 116.653C4.3377 118.747 4.7057 120.647 6.53552 121.995C6.74273 122.147 6.73934 122.312 6.74047 122.525C6.74953 123.504 6.69178 124.483 6.83106 125.461C6.9726 126.456 7.47647 127.099 8.40724 127.479C10.6809 128.406 13.0701 128.831 15.4853 129.136C20.0893 129.718 24.7058 130.152 29.3562 130.078L29.355 130.077ZM15.2238 116.673C15.2759 116.584 15.3619 116.572 15.4536 116.571C16.4104 115.816 17.3876 115.098 18.1791 114.14C19.8051 112.171 20.8695 109.929 21.516 107.488C21.6508 106.978 21.8308 106.893 22.252 106.957C23.407 107.132 24.5789 107.133 25.7373 107.143C28.3541 107.165 30.9709 107.228 33.5899 107.086C35.5409 106.979 37.4964 106.942 39.4496 106.85C41.8139 106.739 44.1657 106.526 46.5119 106.239C46.8674 106.195 46.9127 106.309 46.9773 106.577C47.1777 107.421 47.4426 108.25 47.8537 109.013C49.08 111.288 50.6233 113.292 52.7611 114.81C53.248 115.157 54.0157 115.363 54.1686 115.848C54.3214 116.33 53.9478 116.988 53.7836 117.562C53.3703 119.003 53.1382 120.498 52.4882 121.871C52.3161 122.234 52.0942 122.457 51.6865 122.467C50.9347 122.679 50.1976 122.947 49.4129 123.02C47.8242 123.478 46.1903 123.717 44.5564 123.915C42.6609 124.144 40.7676 124.383 38.8597 124.524C36.6154 124.691 34.3712 124.874 32.1247 124.93C29.081 125.006 26.0306 125.01 22.9948 124.71C22.1014 124.622 21.2001 124.587 20.3203 124.381C19.4552 124.445 18.6162 124.214 17.7703 124.104C17.4329 124.061 16.9924 124.155 16.7071 123.824C15.9949 123.965 15.5725 123.649 15.3676 122.98C15.3234 122.837 15.2589 122.701 15.2057 122.562C14.575 120.921 14.4719 119.215 14.5263 117.479C14.5421 116.962 14.7369 116.719 15.226 116.671L15.2238 116.673ZM53.1586 73.439C53.7768 74.0086 54.2218 74.6857 54.3803 75.5191C54.4211 75.7342 54.4075 75.9777 54.352 76.1905C54.275 76.4906 54.1437 76.7272 53.7689 76.426C53.4847 76.1973 53.1246 76.1735 52.7577 76.1452C51.947 76.083 51.2042 76.3785 50.4297 76.4997C50.1058 76.5914 49.7707 76.657 49.4593 76.7805C47.8061 77.4327 46.1552 78.0917 44.5111 78.7677C44.1216 78.9273 43.6607 78.9421 43.364 79.3146C43.235 79.4765 43.1568 79.6146 43.2621 79.8207C43.3561 80.003 43.4716 80.1163 43.6913 80.1287C44.0242 80.148 44.3174 80.0313 44.6152 79.9136C46.6387 79.113 48.6078 78.1732 50.7026 77.5561C51.3503 77.3659 51.9991 77.1507 52.683 77.1881C53.0714 77.2085 53.4405 77.3183 53.2729 77.8607C53.2661 78.1053 53.2831 78.3544 53.248 78.5956C52.9978 80.3257 52.9027 82.0695 52.8279 83.811C52.7804 84.9173 52.846 86.0281 52.8925 87.1377C52.9445 88.3889 53.2537 89.5598 53.7077 90.6887C54.2762 92.1007 54.9431 93.4753 55.4481 94.9133C56.0188 96.5393 56.3494 98.2242 56.2894 99.9397C56.2464 101.143 56.175 102.337 56.32 103.537C56.4762 104.828 56.7004 106.103 57.1907 107.312C58.0943 109.543 58.5438 111.846 58.3581 114.258C58.2506 115.655 57.9199 116.995 57.3459 118.273C57.3323 118.755 56.9937 119.089 56.7831 119.48C56.1977 120.569 55.2816 121.271 54.1323 121.689C54.0135 121.732 53.8889 121.831 53.7723 121.704C53.6806 121.604 53.7553 121.494 53.7881 121.389C53.9523 120.877 54.1131 120.364 54.2762 119.853C54.6158 118.701 54.9442 117.546 55.2975 116.4C55.6598 115.227 55.6553 115.255 54.6294 114.608C52.8913 113.508 51.5337 112 50.287 110.394C49.1773 108.965 48.156 107.479 47.8763 105.619C47.8322 105.326 47.5751 105.154 47.2898 105.057C47.0169 104.964 46.7746 105.122 46.5141 105.144C44.3276 105.325 42.1445 105.547 39.9546 105.69C38.0229 105.815 36.0867 105.9 34.1515 105.918C30.5123 105.953 26.873 105.938 23.2338 105.918C22.6166 105.915 22.0007 105.801 21.3779 105.818C21.0054 105.828 20.7483 105.992 20.6736 106.343C20.1539 108.794 19.0804 110.992 17.6277 113.015C16.7354 114.256 15.6676 115.312 14.2126 115.866C13.617 116.092 13.4177 116.444 13.4098 117.052C13.3906 118.522 13.4449 119.984 13.6612 121.439C13.9035 122.093 14.1469 122.749 14.413 123.468C13.3838 123.296 12.4122 123.102 11.4815 122.785C9.93473 122.258 8.26004 122.037 6.96467 120.884C6.27169 120.268 5.81084 119.542 5.72818 118.63C5.61042 117.331 5.778 116.039 6.0056 114.764C6.53326 111.807 6.95221 108.843 6.96467 105.832C6.9692 104.872 6.94655 103.915 6.84578 102.962C6.77784 102.318 7.18887 101.745 7.08243 101.089C7.00996 100.641 7.05186 100.192 7.42778 99.8344C7.60669 99.6645 7.53875 99.4018 7.50931 99.1833C7.33267 97.8687 7.1549 96.5529 6.95561 95.2417C6.69178 93.5036 6.47098 91.7565 6.11657 90.0365C5.7044 88.0334 5.76328 86.0575 6.10751 84.0612C6.25357 83.2154 6.5661 82.3854 6.49929 81.5147C6.41323 80.3778 6.6748 79.3146 7.06545 78.2661C7.24888 77.7735 7.55347 77.4281 8.07094 77.2911C8.65521 76.8178 9.26327 76.4725 10.0717 76.4827C10.9334 76.4929 11.7657 76.7125 12.6206 76.7352C12.7859 76.7703 12.9501 76.8076 13.1154 76.8382C15.6891 77.3059 18.1882 78.0724 20.6747 78.8549C22.3596 79.3848 24.0332 79.9589 25.7248 80.4741C26.1189 80.5941 26.6307 80.7866 26.8153 80.2816C27.0078 79.7562 26.4359 79.6452 26.0917 79.4482C25.2527 79.1798 24.4114 78.9183 23.5757 78.6409C22.2169 78.1902 20.8491 77.7622 19.5073 77.2651C18.4361 76.8677 17.2914 76.7329 16.2395 76.2834C16.0424 76.2924 15.8511 76.2698 15.6778 76.1667C15.5669 76.1486 15.4548 76.1384 15.3461 76.1124C13.6465 75.715 11.9355 75.356 10.1816 75.3855C9.08549 75.4036 8.00527 75.561 7.19453 76.4374C7.01675 76.6299 6.89786 76.6276 6.81294 76.3445C6.75746 76.1588 6.69744 75.9686 6.74953 75.7908C7.01789 74.8793 7.5229 74.1071 8.19663 73.4424C8.20908 73.2318 8.36874 73.1152 8.49895 72.9827C9.36857 72.0916 10.0197 71.1687 9.95851 69.7794C9.92001 68.903 10.2676 67.9665 11.0308 67.3256C11.5619 66.6089 12.359 66.2964 13.138 65.9759C15.756 64.8991 18.529 64.6024 21.3179 64.3884C22.1762 64.3227 23.0322 64.2197 23.8916 64.1846C24.7692 64.1495 25.649 64.1767 26.5277 64.1767C25.5018 64.3273 24.485 64.462 23.4897 64.727C23.3051 64.9478 23.0311 64.8312 22.8035 64.9002C20.7483 65.5253 18.7962 66.3609 17.0468 67.6257C16.9041 67.7287 16.7671 67.8171 16.5837 67.7672C15.8443 67.5668 15.0936 67.4004 14.3904 67.0856C14.1107 66.961 13.8389 66.8184 13.865 66.439C13.1562 66.7821 13.1199 67.4106 13.8061 67.8522C14.2171 68.1171 14.6701 68.3085 15.14 68.458C16.9302 69.0264 18.7283 69.5665 20.4924 70.2244C23.3945 71.3057 26.1936 72.5954 28.8059 74.252C30.9822 75.6312 33.0203 77.2051 34.823 79.0632C35.1921 79.4437 35.5907 79.4607 35.8772 79.1119C36.9699 77.7837 38.2505 76.6638 39.598 75.5972C41.2477 74.2916 42.9224 73.0325 44.7749 72.0247C46.2446 71.2242 47.7167 70.4259 49.1694 69.5937C50.0979 69.0615 50.3549 68.1522 49.8318 67.414C49.5669 67.0414 49.149 66.9033 48.7335 66.7731C48.5693 66.9769 48.4878 67.1162 48.7731 67.3494C49.3744 67.8442 49.3121 68.3198 48.6485 68.7388C48.4606 68.8577 48.2409 68.9256 48.0484 69.0388C47.8129 69.177 47.6465 69.1215 47.4494 68.9426C45.9287 67.5544 44.1306 66.6247 42.2374 65.8729C41.2851 65.4947 40.3057 65.1822 39.3375 64.8402C38.2584 64.5435 37.151 64.3907 36.0459 64.1982C36.252 64.154 36.4558 64.1518 36.6596 64.1552C38.8914 64.1869 41.1107 64.3624 43.3153 64.7213C45.5845 65.0905 47.805 65.6091 49.8069 66.7969C50.698 67.3256 51.5767 67.8884 51.7998 69.0241C52.187 69.6503 51.9923 70.3444 52.0093 71.0079C52.0206 71.4801 52.1293 71.89 52.3942 72.275C52.6592 72.6577 52.9049 73.054 53.1597 73.4435L53.1586 73.439ZM10.2472 123.698C11.7736 124.074 13.2728 124.555 14.832 124.801C16.2746 125.028 17.7092 125.31 19.1552 125.501C20.8265 125.721 22.5012 125.915 24.1906 125.978C26.4586 126.062 28.7176 126.226 30.998 126.112C33.5106 125.986 36.0266 125.932 38.5359 125.738C39.5447 125.66 40.5582 125.615 41.5614 125.489C43.381 125.259 45.1984 125.01 47.0078 124.716C49.4921 124.31 51.9515 123.798 54.2671 122.757C54.4494 122.675 54.6657 122.517 54.8491 122.624C55.088 122.765 54.8706 122.995 54.8604 123.186C54.8491 123.393 54.8695 123.604 54.84 123.807C54.7472 124.449 54.7483 125.128 54.0587 125.514C52.9695 126.124 51.7907 126.539 50.6018 126.836C47.6034 127.585 44.5473 128.029 41.4708 128.364C38.6706 128.669 35.8659 128.878 33.0521 128.896C29.0822 128.921 25.1077 129.031 21.1435 128.677C20.2309 128.595 19.3216 128.472 18.4101 128.366C17.3491 128.244 16.2893 128.122 15.2294 128C14.7493 127.925 14.2681 127.864 13.7914 127.774C12.1348 127.464 10.476 127.172 8.90093 126.531C8.33817 126.302 8.05848 125.977 7.95771 125.349C7.83428 124.579 7.95205 123.809 7.82523 123.048C7.76748 122.699 8.00866 122.782 8.17398 122.848C8.86922 123.123 9.55767 123.415 10.2484 123.7L10.2472 123.698ZM35.4401 77.5085C35.1717 77.2594 34.6396 77.4315 34.3044 77.0692C33.3555 76.0422 32.2345 75.2281 31.1022 74.4173C29.4785 73.2556 27.7868 72.2025 26.0034 71.325C23.5599 70.1225 21.0246 69.1283 18.4135 68.3357C18.2923 68.2983 18.1338 68.2768 18.1089 68.1239C18.0829 67.9575 18.2504 67.9246 18.3546 67.8544C19.3918 67.1569 20.5162 66.6406 21.6995 66.2477C23.775 65.5581 25.9366 65.2694 28.0937 65.1018C29.9382 64.9591 31.7952 64.8832 33.6646 65.0327C35.8783 65.2093 38.058 65.4958 40.1902 66.0993C42.4899 66.7516 44.6152 67.774 46.5107 69.2472C46.8233 69.4895 46.8731 69.6763 46.4519 69.8915C43.6403 71.3352 40.9047 72.9034 38.477 74.9518C37.6617 75.6402 36.8057 76.2856 36.1387 77.1349C35.9938 77.3194 35.8387 77.5368 35.439 77.5051L35.4401 77.5085Z" fill="#080808"/>
<path d="M13.6594 121.44C13.4442 119.985 13.3887 118.523 13.408 117.053C13.4159 116.445 13.6152 116.093 14.2108 115.866C15.6658 115.313 16.7336 114.256 17.6259 113.015C19.0797 110.993 20.152 108.795 20.6718 106.344C20.7465 105.993 21.0035 105.828 21.3761 105.818C21.9989 105.802 22.6148 105.917 23.2319 105.919C26.8712 105.937 30.5105 105.954 34.1497 105.919C36.0848 105.9 38.0211 105.815 39.9528 105.69C42.1416 105.549 44.3258 105.326 46.5123 105.145C46.7716 105.123 47.0139 104.965 47.2879 105.057C47.5733 105.154 47.8303 105.326 47.8745 105.62C48.1542 107.481 49.1755 108.966 50.2852 110.395C51.5319 112.001 52.8895 113.51 54.6276 114.608C55.6524 115.257 55.658 115.228 55.2957 116.401C54.9413 117.548 54.614 118.703 54.2743 119.853C55.2175 119.826 55.8097 119.16 56.4552 118.619C56.7314 118.388 56.976 118.208 57.3429 118.275C57.9158 116.995 58.2476 115.656 58.3552 114.26C58.5409 111.848 58.0914 109.545 57.1878 107.314C56.6986 106.105 56.4733 104.83 56.317 103.539C56.1721 102.339 56.2434 101.145 56.2864 99.9416C56.3476 98.2261 56.0158 96.5401 55.4451 94.9152C54.9401 93.4761 54.2732 92.1026 53.7048 90.6906C53.2507 89.5628 52.9416 88.3908 52.8895 87.1396C52.8431 86.03 52.7774 84.9192 52.825 83.8129C52.8997 82.0703 52.9948 80.3276 53.2451 78.5975C53.2802 78.3563 53.2632 78.1083 53.2688 77.8637C52.2962 77.8252 51.3722 78.106 50.4652 78.3755C47.5076 79.2531 44.584 80.2393 41.6015 81.0319C41.6173 81.2176 41.6185 81.4067 41.6524 81.5902C42.0612 83.7665 42.2775 85.9677 42.3714 88.1757C42.4439 89.9047 42.3975 91.6406 42.393 93.373C42.393 93.6663 42.5028 93.8882 42.6273 94.1498C43.0554 95.05 43.189 95.8335 42.3964 96.4891C41.7419 97.0304 41.1202 96.8832 40.468 96.539C40.1748 96.5503 39.8804 96.5333 39.7479 96.2197C39.509 95.6501 39.2327 95.0794 39.6799 94.4725C39.8113 94.2947 39.8611 94.0717 39.9132 93.8463C40.0728 93.1534 39.9358 92.4728 39.92 91.7833C39.8713 89.7202 39.9528 87.6526 39.6697 85.6008C39.5191 84.5104 39.4727 83.4075 39.2598 82.3228C39.1772 81.9016 39.0073 81.6694 38.5567 81.7091C38.457 81.7181 38.3732 81.6762 38.3155 81.5913C38.0517 81.5936 37.7867 81.5958 37.5229 81.5992C37.3734 82.0555 36.9896 81.9446 36.6725 81.9185C36.386 81.8959 36.3272 81.6479 36.2535 81.3943C36.1267 80.9515 36.3351 80.6028 36.5513 80.2948C37.2579 79.2904 38.1502 78.4469 39.0832 77.6633C40.4624 76.5049 42.0159 75.5844 43.5094 74.5845C45.2566 73.4149 47.1181 72.4501 49.017 71.5647C50.2274 70.9996 51.2307 70.267 51.7957 69.0237C51.5726 67.8869 50.6939 67.3241 49.8028 66.7965C47.8009 65.6087 45.5804 65.0901 43.3113 64.7209C41.1066 64.362 38.8873 64.1865 36.6555 64.1548C36.4517 64.1514 36.2479 64.1548 36.0418 64.1978C37.1469 64.3903 38.2543 64.5443 39.3334 64.8398C40.2291 64.5873 41.0999 64.8987 41.9819 64.9497C44.0529 65.0708 45.9892 65.7332 47.9277 66.3855C48.2006 66.4772 48.5233 66.5191 48.7283 66.7727C49.1438 66.9018 49.5616 67.0411 49.8266 67.4136C50.3497 68.1507 50.0927 69.0611 49.1642 69.5933C47.7114 70.4255 46.2406 71.2238 44.7697 72.0244C42.9172 73.0333 41.2437 74.2913 39.5927 75.5968C38.2453 76.6635 36.9646 77.7822 35.872 79.1115C35.5844 79.4603 35.1869 79.4433 34.8178 79.0628C33.014 77.2058 30.977 75.6319 28.8007 74.2516C26.1873 72.5951 23.3893 71.3054 20.4872 70.224C18.7231 69.5673 16.925 69.0271 15.1348 68.4576C14.6649 68.3081 14.2119 68.1168 13.8009 67.8518C13.1147 67.4102 13.1521 66.7818 13.8598 66.4387C14.4101 65.9767 15.0997 65.8329 15.7609 65.646C17.7074 65.0946 19.7127 64.8591 21.7146 64.6406C22.291 64.5771 22.9058 64.4866 23.4844 64.7266C24.4809 64.4616 25.4977 64.3269 26.5224 64.1763C25.6438 64.1763 24.764 64.1491 23.8864 64.1842C23.027 64.2193 22.171 64.3224 21.3127 64.388C18.5249 64.6021 15.7519 64.8987 13.1328 65.9756C12.3538 66.296 11.5567 66.6085 11.0256 67.3253C11.1819 67.8303 11.1286 68.3953 11.6235 68.7939C12.2779 69.3193 13.0638 69.5503 13.8213 69.7711C16.6328 70.592 19.4217 71.465 22.0985 72.6641C24.054 73.5405 26.0084 74.4249 27.8269 75.5696C28.2402 75.8301 28.5561 76.2479 29.0702 76.3475C29.3011 76.3928 29.4721 76.5446 29.6657 76.6567C30.9215 77.3814 32.0447 78.2997 33.1272 79.2429C33.6877 79.7309 34.7385 80.1159 34.2392 81.255C34.4237 81.5154 34.2188 81.5619 34.0399 81.589C33.8825 81.6128 33.7183 81.5936 33.5564 81.5936C33.3299 81.5936 33.1012 81.6151 32.8781 81.5913C32.4728 81.5494 32.3607 81.7589 32.4422 82.0974C32.7468 83.3656 32.7773 84.6678 32.8509 85.9541C32.9721 88.0772 33.1612 90.2173 32.9381 92.329C32.8351 93.2972 33.1816 94.0841 33.3514 94.9413C33.5054 95.7203 33.3797 96.2389 32.7151 96.6884C32.175 97.053 31.6303 96.8311 31.0823 96.7564C30.9305 96.8277 30.7981 96.9047 30.6078 96.8085C29.8899 96.4439 29.5423 95.2402 30.0292 94.6084C30.3021 94.2528 30.395 93.8848 30.3916 93.4591C30.3712 90.8264 30.4312 88.1938 30.1866 85.5635C30.0813 84.4266 30.0111 83.2875 29.8367 82.1563C29.7903 81.8574 29.6759 81.7521 29.3917 81.6887C28.1858 81.4214 26.9754 81.1871 25.791 80.8111C24.3994 80.3684 22.9557 80.1046 21.538 79.7445C18.8318 79.0572 16.172 78.1819 13.408 77.7278C12.6165 77.5976 12.6199 77.5761 12.6154 76.7371C11.7605 76.7144 10.9282 76.4947 10.0665 76.4846C9.25919 76.4744 8.65 76.8209 8.06573 77.2942C8.57527 77.3293 9.0633 77.1277 9.5785 77.1798C9.98613 77.2206 10.1582 77.4255 10.122 77.8082C10.0688 78.3767 9.70192 78.7356 9.17993 78.7764C8.53564 78.8251 8.40542 79.2757 8.25256 79.7264C8.18236 79.9313 8.19934 80.1725 8.205 80.3967C8.22425 81.1712 8.12008 81.9151 7.92192 82.6738C7.57317 84.0099 7.22782 85.3528 7.1746 86.7535C7.11459 88.3138 7.42484 89.7994 7.80982 91.302C8.17103 92.7095 8.29898 94.1826 8.61943 95.598C9.2456 98.3654 9.29995 101.175 9.40299 103.975C9.43243 104.788 9.60115 105.46 9.94537 106.147C10.156 106.567 10.3519 106.995 10.5274 107.431C10.764 108.017 11.0143 108.58 10.8376 109.273C10.7414 109.652 10.67 110.081 10.6972 110.495C10.7957 111.971 11.0935 113.42 11.3177 114.879C11.4661 115.842 11.6891 116.806 11.5827 117.781C11.5136 118.42 11.4876 119.053 11.4864 119.691C11.4864 120.158 11.6914 120.546 12.0594 120.802C12.5361 121.133 13.0694 121.365 13.6548 121.445L13.6594 121.44Z" fill="#272726"/>
<path d="M20.3181 124.383C21.1979 124.588 22.1004 124.624 22.9926 124.713C26.0295 125.013 29.0788 125.007 32.1225 124.932C34.369 124.877 36.6132 124.692 38.8575 124.527C40.7654 124.385 42.6587 124.148 44.5542 123.918C46.1881 123.721 47.8209 123.481 49.4107 123.022C49.4208 122.685 49.7334 122.625 49.9349 122.486C50.9121 121.816 51.6696 121.001 51.8972 119.785C52.0456 118.993 52.2018 118.202 52.3988 117.423C52.4826 117.091 52.443 116.911 52.1339 116.734C51.1827 116.194 50.3471 115.49 49.568 114.734C47.8299 113.045 46.7305 110.957 46.0284 108.668C45.8427 108.061 45.5166 108.016 45.0512 108.096C43.1841 108.422 41.2886 108.473 39.4067 108.615C38.0819 108.714 36.7446 108.84 35.4073 108.762C35.0393 108.74 34.6464 108.75 34.3079 108.801C32.9027 109.012 31.4884 108.881 30.0877 108.917C28.7448 108.951 27.3826 108.899 26.0295 108.889C25.4248 108.884 24.836 108.74 24.2337 108.758C24.1193 108.762 23.9913 108.75 23.971 108.607C23.9483 108.449 24.0514 108.355 24.1918 108.328C24.3197 108.303 24.4545 108.309 24.5858 108.31C25.4305 108.312 26.2956 108.45 27.112 108.373C28.0496 108.284 28.9713 108.411 29.9043 108.35C32.041 108.21 34.1912 108.327 36.337 108.214C37.3855 108.158 38.4374 108.093 39.4882 108.049C40.1789 108.021 40.8775 108.027 41.5671 107.95C43.0538 107.785 44.5485 107.692 46.0216 107.412C46.2232 107.373 46.5833 107.471 46.5119 107.638C46.2492 108.259 46.598 108.72 46.7984 109.225C47.8877 111.967 49.6643 114.181 52.0512 115.891C52.7261 116.374 53.0692 116.768 52.845 117.716C52.5098 119.13 52.409 120.597 51.6968 121.911C51.6153 122.061 51.4432 122.282 51.6866 122.469C52.0942 122.459 52.3162 122.236 52.4883 121.874C53.1394 120.502 53.3704 119.006 53.7837 117.564C53.949 116.99 54.3226 116.332 54.1686 115.85C54.0146 115.365 53.2469 115.159 52.7612 114.813C50.6234 113.293 49.08 111.29 47.8537 109.015C47.4427 108.252 47.1777 107.423 46.9773 106.58C46.9139 106.311 46.8675 106.197 46.5119 106.241C44.1658 106.529 41.8128 106.742 39.4497 106.853C37.4965 106.944 35.5409 106.982 33.59 107.088C30.9709 107.231 28.353 107.169 25.7374 107.146C24.579 107.136 23.4082 107.135 22.2521 106.959C21.832 106.896 21.6508 106.981 21.5161 107.49C20.8695 109.93 19.8052 112.173 18.1792 114.142C17.3877 115.1 16.4105 115.818 15.4537 116.574C15.6213 117.368 15.9236 117.52 16.5396 117.098C17.0661 116.738 17.6028 116.393 18.0671 115.946C19.4111 114.653 20.4449 113.138 21.2749 111.482C21.746 110.541 22.1411 109.566 22.4152 108.544C22.4672 108.351 22.5103 108.107 22.8239 108.262C23.0538 108.377 23.0289 108.502 22.9304 108.715C22.8058 108.981 22.7786 109.29 22.6756 109.568C22.0041 111.39 21.2115 113.144 19.975 114.67C18.9627 115.92 17.8565 117.058 16.4558 117.875C16.2339 118.004 16.1138 118.144 16.1297 118.407C16.201 119.567 16.3369 120.721 16.6347 121.846C16.7457 122.265 16.9959 122.681 17.3684 122.884C18.2222 123.349 19.0375 123.91 20.0033 124.14C20.1539 124.176 20.3113 124.176 20.3181 124.385V124.383Z" fill="#272726"/>
<path d="M35.4384 77.5088C35.8369 77.5405 35.9921 77.3231 36.1381 77.1386C36.8051 76.2882 37.6611 75.6428 38.4764 74.9555C40.904 72.9071 43.6397 71.3388 46.4513 69.8951C46.8725 69.6789 46.8227 69.4932 46.5101 69.2509C44.6146 67.7777 42.4893 66.7552 40.1896 66.103C38.0574 65.4984 35.8766 65.213 33.664 65.0364C31.7946 64.8869 29.9376 64.9616 28.0931 65.1055C25.936 65.273 23.7744 65.5618 21.6989 66.2514C20.5167 66.6443 19.3912 67.1606 18.354 67.8581C18.2498 67.9283 18.0811 67.9611 18.1083 68.1276C18.1321 68.2805 18.2917 68.302 18.4129 68.3393C21.0229 69.132 23.5593 70.1261 26.0028 71.3286C27.7862 72.2062 29.4779 73.2592 31.1016 74.421C32.2339 75.2317 33.3549 76.0447 34.3038 77.0729C34.639 77.4352 35.1711 77.2631 35.4395 77.5122L35.4384 77.5088Z" fill="#131212"/>
<path d="M40.6969 73.2848C40.4626 73.4019 36.9874 76.4573 35.2791 77.9704C33.756 75.979 25.0781 71.4788 20.9296 69.4777L20.051 66.1099L38.9398 68.7455C39.6231 70.2098 40.9312 73.1676 40.6969 73.2848Z" fill="#9A735E" stroke="black"/>
<path d="M13.6572 121.439C13.0718 121.358 12.5384 121.126 12.0617 120.796C11.6937 120.54 11.4877 120.151 11.4888 119.685C11.4888 119.047 11.5148 118.413 11.585 117.775C11.6915 116.8 11.4684 115.835 11.3201 114.872C11.0959 113.414 10.7969 111.965 10.6996 110.488C10.6724 110.075 10.7437 109.645 10.84 109.266C11.0166 108.573 10.7664 108.011 10.5297 107.424C10.3542 106.988 10.1583 106.56 9.94771 106.14C9.60348 105.454 9.43477 104.781 9.40533 103.968C9.30229 101.168 9.24794 98.3588 8.62177 95.5914C8.30132 94.176 8.17337 92.7029 7.81216 91.2954C7.42718 89.7928 7.11692 88.3084 7.17693 86.7469C7.23128 85.3462 7.57551 84.0033 7.92426 82.6672C8.12242 81.9074 8.22659 81.1635 8.20734 80.3901C8.20168 80.1659 8.18469 79.9247 8.2549 79.7198C8.40776 79.2702 8.53798 78.8196 9.18226 78.7698C9.70539 78.7301 10.0711 78.3701 10.1243 77.8016C10.1606 77.4189 9.98847 77.214 9.58084 77.1732C9.06563 77.1211 8.5776 77.3227 8.06806 77.2876C7.5506 77.4246 7.24601 77.7699 7.06257 78.2625C6.67192 79.3121 6.40923 80.3743 6.49641 81.5111C6.56322 82.3818 6.24957 83.2118 6.10463 84.0577C5.76154 86.0551 5.70153 88.0298 6.11369 90.0329C6.46697 91.7529 6.68891 93.5 6.95274 95.2381C7.15202 96.5505 7.3298 97.8651 7.50644 99.1797C7.53588 99.3983 7.60382 99.6598 7.42491 99.8308C7.05011 100.189 7.00822 100.637 7.07956 101.085C7.18486 101.742 6.77496 102.315 6.8429 102.958C6.94255 103.912 6.96519 104.87 6.96179 105.829C6.94934 108.84 6.53038 111.804 6.00272 114.76C5.77513 116.035 5.60642 117.327 5.72531 118.626C5.80797 119.539 6.26882 120.265 6.96179 120.881C8.25716 122.033 9.93186 122.254 11.4786 122.782C12.4094 123.099 13.3809 123.292 14.4102 123.464C14.1429 122.745 13.9006 122.09 13.6583 121.435L13.6572 121.439Z" fill="#191919"/>
<path d="M34.2426 81.252C34.7408 80.1129 33.6911 79.729 33.1306 79.2399C32.0481 78.2967 30.9249 77.3783 29.6691 76.6537C29.4755 76.5416 29.3045 76.3898 29.0735 76.3445C28.5595 76.2449 28.2436 75.8271 27.8303 75.5666C26.0118 74.423 24.0574 73.5375 22.1019 72.6611C19.4251 71.4609 16.6362 70.589 13.8247 69.7681C13.0671 69.5473 12.2813 69.3163 11.6268 68.7909C11.1309 68.3923 11.1852 67.8273 11.029 67.3223C10.2658 67.9632 9.91818 68.8996 9.95668 69.776C10.0178 71.1653 9.36674 72.0882 8.49713 72.9793C8.36691 73.1118 8.20839 73.2284 8.1948 73.439C8.42692 73.6179 8.6817 73.7504 8.97723 73.6508C10.1526 73.2545 11.2351 73.5477 12.1919 74.2101C12.895 74.697 13.8756 74.4173 14.4588 75.1364C14.4746 75.1556 14.5312 75.1386 14.5686 75.142C15.1461 75.1896 15.5526 75.5655 15.6749 76.1634C15.8481 76.2675 16.0395 76.2902 16.2365 76.28C16.3848 76.2075 16.4392 76.0864 16.472 75.9233C16.6102 75.2326 16.8615 75.1058 17.4888 75.4308C18.0414 75.7172 18.6042 75.9879 19.1998 76.1588C20.1486 76.4306 21.0262 76.939 22.0509 76.9707C22.514 76.9843 22.8639 77.2617 23.0111 77.7237C23.1108 78.0351 23.2772 78.2989 23.618 78.3001C24.2487 78.3023 24.8353 78.5503 25.4388 78.6058C26.0729 78.6647 26.142 78.9568 26.0888 79.4448C26.433 79.6418 27.0048 79.7517 26.8123 80.2782C26.6277 80.7821 26.1159 80.5907 25.7219 80.4707C24.0302 79.9555 22.3578 79.3825 20.6718 78.8515C18.1841 78.0691 15.6862 77.3025 13.1124 76.8348C12.9471 76.8043 12.7818 76.7658 12.6176 76.7318C12.6221 77.572 12.6176 77.5935 13.4102 77.7237C16.1742 78.1778 18.8352 79.053 21.5403 79.7404C22.9568 80.1004 24.4005 80.3654 25.7932 80.807C26.9765 81.1829 28.1881 81.4173 29.394 81.6845C29.6793 81.7479 29.7937 81.8533 29.839 82.1522C30.0134 83.2834 30.0824 84.4225 30.1889 85.5593C30.4334 88.1897 30.3734 90.8223 30.3938 93.4549C30.3972 93.8818 30.3044 94.2498 30.0315 94.6042C29.5446 95.2372 29.8911 96.4397 30.6101 96.8043C30.8003 96.9006 30.9328 96.8236 31.0845 96.7522C31.0732 96.7171 31.0709 96.6707 31.0472 96.6469C30.2376 95.8192 30.1787 94.7582 30.9124 93.8195C31.0562 93.635 31.0732 93.447 31.0675 93.2398C31.0121 91.3579 31.0811 89.4783 30.9939 87.593C30.9045 85.6601 30.8241 83.7272 30.5942 81.808C30.5093 81.0991 30.5693 80.3314 30.1368 79.6928C29.8265 79.2342 29.9409 78.8311 30.2908 78.4756C30.6701 78.0894 31.2906 78.0759 31.7934 78.4608C32.1659 78.7462 32.4807 79.1674 32.2406 79.6249C31.9949 80.0925 32.2304 80.4616 32.2916 80.867C32.4003 81.5849 32.9823 81.1331 33.3333 81.2565C33.4012 81.2803 33.4828 81.2622 33.5586 81.2633C33.7874 81.2599 34.0161 81.2565 34.2448 81.2531L34.2426 81.252Z" fill="#1F1F1F"/>
<path d="M15.2277 127.998C16.2875 128.12 17.3485 128.243 18.4084 128.365C19.3187 128.47 20.228 128.592 21.1418 128.675C25.106 129.029 29.0804 128.919 33.0503 128.895C35.8641 128.876 38.6677 128.667 41.4691 128.362C44.5444 128.028 47.6017 127.583 50.6001 126.834C51.789 126.537 52.9677 126.123 54.057 125.512C54.7466 125.126 54.7455 124.448 54.8383 123.805C54.8677 123.601 54.8474 123.39 54.8587 123.184C54.8689 122.993 55.0863 122.763 54.8474 122.623C54.6639 122.515 54.4477 122.674 54.2654 122.755C51.9498 123.796 49.4904 124.31 47.0061 124.714C45.1967 125.01 43.3793 125.259 41.5597 125.487C40.5564 125.614 39.543 125.658 38.5341 125.737C36.0249 125.931 33.5078 125.984 30.9963 126.11C28.7158 126.225 26.458 126.061 24.1888 125.977C22.4994 125.914 20.8247 125.72 19.1534 125.499C17.7063 125.307 16.2717 125.025 14.8302 124.799C13.2722 124.553 11.7719 124.071 10.2455 123.696C9.61934 124.231 9.64764 124.704 10.378 125.222C11.0008 125.665 11.6654 126.05 12.2871 126.495C12.9642 126.981 13.5598 127.584 14.5223 127.471C14.768 127.442 15.1631 127.59 15.2277 127.994V127.998Z" fill="#191919"/>
<path d="M51.7978 69.0197C51.2328 70.263 50.2295 70.9956 49.0191 71.5606C47.1202 72.4461 45.2587 73.4108 43.5115 74.5805C42.0169 75.5803 40.4645 76.5009 39.0853 77.6592C38.1523 78.4428 37.26 79.2864 36.5535 80.2907C36.3372 80.5987 36.1288 80.9475 36.2557 81.3902C36.3281 81.6439 36.3881 81.8918 36.6746 81.9145C36.9905 81.9394 37.3755 82.0504 37.525 81.5952C37.2453 81.5918 36.9656 81.5952 36.6859 81.5816C36.5444 81.5748 36.4312 81.4989 36.4187 81.3449C36.404 81.1558 36.5535 81.1309 36.6837 81.1468C37.6869 81.2725 38.6731 81.0064 39.6707 81.0245C39.8564 80.5104 39.605 80.0926 39.3163 79.7257C39.0344 79.3668 39.0593 79.0395 39.2676 78.6953C39.5009 78.3115 39.8428 78.0975 40.3059 78.2141C40.7849 78.3341 41.0646 78.6466 41.1495 79.1482C41.2571 79.7835 41.2786 80.4425 41.6013 81.0279C44.5838 80.2341 47.5086 79.2479 50.4651 78.3715C51.372 78.102 52.2971 77.8212 53.2687 77.8597C53.4374 77.3173 53.0671 77.2075 52.6787 77.1871C51.9948 77.1508 51.346 77.3648 50.6983 77.5551C48.6035 78.1722 46.6344 79.112 44.611 79.9125C44.3132 80.0303 44.0199 80.1469 43.687 80.1277C43.4674 80.1152 43.3519 80.0031 43.2579 79.8197C43.1526 79.6136 43.2307 79.4755 43.3598 79.3136C43.6565 78.941 44.1173 78.9274 44.5068 78.7666C46.1509 78.0907 47.8019 77.4316 49.455 76.7794C49.7676 76.656 50.1016 76.5915 50.4254 76.4986C50.4107 76.2087 50.7764 76.108 50.7629 75.817C50.7312 75.1308 51.2147 74.9485 51.7412 74.9315C52.1817 74.9168 52.3821 74.6847 52.6402 74.3914C52.8973 74.1004 52.7818 73.6407 53.1543 73.438C52.8995 73.0473 52.6538 72.6522 52.3889 72.2694C52.1228 71.8856 52.0152 71.4745 52.0039 71.0024C51.988 70.3388 52.1828 69.6447 51.7944 69.0186L51.7978 69.0197Z" fill="#1F1F1F"/>
<path d="M51.6854 122.469C51.4408 122.281 51.614 122.06 51.6955 121.91C52.4078 120.597 52.5097 119.13 52.8437 117.715C53.0679 116.769 52.7248 116.373 52.05 115.89C49.663 114.18 47.8864 111.967 46.7972 109.224C46.5967 108.72 46.248 108.258 46.5107 107.638C46.582 107.47 46.2219 107.373 46.0204 107.411C44.5473 107.691 43.0526 107.784 41.5659 107.949C40.8763 108.026 40.1777 108.02 39.4869 108.049C38.4362 108.092 37.3842 108.157 36.3357 108.213C34.19 108.325 32.0397 108.209 29.903 108.349C28.97 108.41 28.0483 108.283 27.1107 108.373C26.2944 108.451 25.4293 108.313 24.5846 108.309C24.4532 108.309 24.3185 108.302 24.1905 108.327C24.0512 108.354 23.9471 108.448 23.9697 108.606C23.9901 108.75 24.118 108.761 24.2324 108.758C24.8348 108.739 25.4225 108.883 26.0283 108.888C27.3814 108.898 28.7435 108.951 30.0865 108.916C31.4883 108.88 32.9014 109.012 34.3066 108.801C34.6452 108.75 35.0381 108.739 35.4061 108.761C36.7433 108.84 38.0806 108.715 39.4054 108.614C41.2873 108.472 43.1828 108.421 45.05 108.095C45.5154 108.014 45.8415 108.059 46.0272 108.667C46.7292 110.956 47.8287 113.044 49.5668 114.733C50.3458 115.489 51.1815 116.193 52.1326 116.734C52.4417 116.909 52.4814 117.09 52.3976 117.422C52.1994 118.202 52.0443 118.993 51.896 119.784C51.6684 121 50.9109 121.815 49.9337 122.486C49.7321 122.624 49.4196 122.684 49.4094 123.021C50.1941 122.948 50.9324 122.68 51.6831 122.469H51.6854Z" fill="#1F1F1F"/>
<path d="M48.7321 66.7684C48.5272 66.5148 48.2045 66.474 47.9316 66.3812C45.9931 65.729 44.0568 65.0654 41.9858 64.9454C41.1026 64.8933 40.233 64.5831 39.3373 64.8356C40.3043 65.1775 41.2838 65.49 42.2372 65.8682C44.1304 66.6212 45.9285 67.5497 47.4492 68.9379C47.6451 69.1168 47.8127 69.1723 48.0482 69.0342C48.2407 68.921 48.4592 68.853 48.6483 68.7341C49.3119 68.3152 49.3742 67.8407 48.7729 67.3448C48.4887 67.1104 48.5702 66.9722 48.7333 66.7684H48.7321Z" fill="#191919"/>
<path d="M15.6766 76.1633C15.5543 75.5655 15.1478 75.1895 14.5703 75.142C14.533 75.1386 14.4752 75.1556 14.4605 75.1363C13.8774 74.4173 12.8968 74.697 12.1936 74.2101C11.2368 73.5477 10.1543 73.2544 8.97896 73.6507C8.68456 73.7504 8.42866 73.6179 8.19654 73.439C7.52281 74.1036 7.0178 74.8759 6.74944 75.7874C6.69735 75.9652 6.75737 76.1543 6.81285 76.3411C6.89777 76.6242 7.01666 76.6264 7.19444 76.4339C8.00518 75.5587 9.0854 75.4001 10.1815 75.382C11.9366 75.3526 13.6464 75.7127 15.346 76.109C15.4547 76.1339 15.5668 76.1452 15.6777 76.1633H15.6766Z" fill="#191919"/>
<path d="M20.319 124.383C20.3122 124.175 20.1536 124.174 20.0042 124.138C19.0383 123.908 18.2219 123.347 17.3693 122.882C16.9979 122.679 16.7465 122.262 16.6355 121.843C16.3366 120.719 16.2019 119.566 16.1305 118.405C16.1147 118.143 16.2347 118.002 16.4566 117.872C17.8573 117.057 18.9636 115.918 19.9759 114.668C21.2124 113.142 22.0061 111.387 22.6764 109.566C22.7795 109.287 22.8067 108.978 22.9312 108.713C23.0309 108.5 23.0558 108.373 22.8248 108.26C22.5111 108.105 22.4681 108.349 22.416 108.542C22.142 109.562 21.7468 110.538 21.2758 111.479C20.4458 113.136 19.4108 114.651 18.0679 115.944C17.6037 116.391 17.0658 116.736 16.5404 117.096C15.9244 117.518 15.6221 117.366 15.4545 116.571C15.364 116.573 15.2768 116.584 15.2258 116.673C15.2439 116.934 15.1828 117.236 15.2949 117.446C15.6266 118.063 15.6176 118.724 15.6912 119.386C15.8078 120.437 15.8441 121.508 16.2766 122.501C16.4634 122.929 16.6514 123.357 16.7069 123.827C16.9922 124.159 17.4327 124.065 17.7701 124.108C18.616 124.217 19.455 124.448 20.3201 124.384L20.319 124.383Z" fill="#1F1F1F"/>
<path d="M23.4883 64.7232C22.9097 64.4832 22.2948 64.5738 21.7185 64.6372C19.7165 64.8557 17.7112 65.0924 15.7648 65.6427C15.1035 65.8295 14.4139 65.9733 13.8636 66.4353C13.8376 66.8135 14.1105 66.9562 14.389 67.0818C15.0922 67.3966 15.8429 67.5631 16.5823 67.7635C16.7657 67.8133 16.9027 67.725 17.0454 67.622C18.7948 66.356 20.7469 65.5215 22.8021 64.8965C23.0297 64.8274 23.3037 64.944 23.4883 64.7232Z" fill="#191919"/>
<path d="M15.2266 127.998C15.162 127.593 14.7668 127.445 14.5211 127.474C13.5587 127.588 12.9642 126.984 12.2859 126.498C11.6643 126.053 11.0008 125.668 10.3769 125.226C9.64652 124.707 9.61821 124.234 10.2444 123.699C9.55367 123.414 8.86522 123.122 8.16998 122.847C8.00466 122.781 7.76348 122.698 7.82123 123.047C7.94805 123.808 7.83029 124.578 7.95371 125.348C8.05448 125.976 8.33417 126.301 8.89693 126.53C10.472 127.171 12.1319 127.463 13.7874 127.773C14.2641 127.863 14.7465 127.924 15.2254 127.999L15.2266 127.998Z" fill="#131212"/>
<path d="M26.093 79.4467C26.1462 78.9587 26.0783 78.6665 25.443 78.6076C24.8395 78.5522 24.253 78.3042 23.6223 78.3019C23.2803 78.3008 23.1139 78.037 23.0153 77.7256C22.8681 77.2636 22.5183 76.9862 22.0551 76.9726C21.0304 76.942 20.1529 76.4325 19.204 76.1607C18.6084 75.9897 18.0456 75.7191 17.493 75.4326C16.8669 75.1077 16.6144 75.2345 16.4762 75.9252C16.4434 76.0882 16.389 76.2083 16.2407 76.2819C17.2926 76.7314 18.4374 76.8661 19.5086 77.2636C20.8504 77.7607 22.2182 78.1898 23.577 78.6393C24.4126 78.9168 25.2539 79.1783 26.093 79.4467Z" fill="#191919"/>
<path d="M16.7051 123.826C16.6496 123.355 16.4605 122.928 16.2748 122.5C15.8423 121.507 15.806 120.436 15.6894 119.385C15.6158 118.724 15.6237 118.062 15.2931 117.445C15.181 117.235 15.2421 116.933 15.224 116.672C14.7349 116.721 14.5401 116.963 14.5242 117.481C14.4699 119.217 14.5729 120.923 15.2036 122.564C15.2568 122.703 15.3225 122.839 15.3656 122.982C15.5705 123.65 15.9929 123.966 16.7051 123.825V123.826Z" fill="#272726"/>
<path d="M53.1573 73.439C52.7847 73.6416 52.9014 74.1025 52.6432 74.3924C52.3839 74.6845 52.1835 74.9178 51.7441 74.9325C51.2176 74.9495 50.7341 75.1318 50.7658 75.818C50.7794 76.109 50.4137 76.2097 50.4284 76.4996C51.2029 76.3785 51.9457 76.0818 52.7564 76.1452C53.1244 76.1735 53.4845 76.1984 53.7676 76.426C54.1424 76.7272 54.2737 76.4906 54.3507 76.1905C54.4051 75.9776 54.4198 75.7342 54.379 75.519C54.2194 74.6856 53.7755 74.0085 53.1573 73.439Z" fill="#191919"/>
<path d="M57.3446 118.273C56.9766 118.206 56.732 118.386 56.4568 118.617C55.8103 119.158 55.2181 119.824 54.276 119.851C54.1141 120.363 53.9522 120.876 53.788 121.388C53.754 121.493 53.6804 121.602 53.7721 121.703C53.8887 121.831 54.0144 121.731 54.1322 121.688C55.2815 121.27 56.1975 120.568 56.7829 119.479C56.9924 119.088 57.331 118.754 57.3457 118.272L57.3446 118.273Z" fill="#1F1F1F"/>
<path d="M33.5586 81.2622C33.4827 81.2622 33.4012 81.2792 33.3333 81.2554C32.9822 81.132 32.4002 81.5826 32.2915 80.8659C32.2304 80.4605 31.9949 80.0925 32.2406 79.6237C32.4818 79.1651 32.167 78.7451 31.7933 78.4597C31.2906 78.0747 30.6701 78.0894 30.2907 78.4744C29.9409 78.83 29.8265 79.2331 30.1367 79.6917C30.5693 80.3314 30.5093 81.0991 30.5942 81.8068C30.8241 83.7261 30.9045 85.659 30.9939 87.5918C31.0811 89.476 31.012 91.3568 31.0675 93.2387C31.0732 93.447 31.0562 93.6338 30.9124 93.8184C30.1786 94.7571 30.2386 95.8181 31.0471 96.6458C31.0709 96.6696 31.072 96.716 31.0845 96.7511C31.6325 96.8258 32.1772 97.0478 32.7173 96.6832C33.382 96.2336 33.5076 95.715 33.3536 94.936C33.1849 94.0788 32.8384 93.293 32.9404 92.3238C33.1645 90.212 32.9743 88.0719 32.8532 85.9488C32.7796 84.6625 32.749 83.3604 32.4444 82.0922C32.3629 81.7536 32.475 81.5441 32.8803 81.586C33.1045 81.6098 33.3321 81.5894 33.5586 81.5883C33.5575 81.4785 33.5563 81.3698 33.5552 81.2599L33.5586 81.2622ZM32.3176 89.7942C32.3176 91.2843 32.3176 92.377 32.3176 93.4697C32.3176 93.7222 32.2655 93.935 31.953 93.9192C31.6744 93.9056 31.6371 93.6995 31.6393 93.4753C31.6393 93.4187 31.6393 93.3621 31.6393 93.3055C31.6121 90.6162 31.7299 87.9236 31.5216 85.2377C31.4491 84.307 31.3143 83.3807 31.2283 82.45C31.132 81.406 30.9565 80.3756 30.7437 79.3497C30.7086 79.1833 30.7176 78.9715 30.9226 78.9296C31.1151 78.89 31.3449 79.0021 31.3664 79.1912C31.4049 79.5354 31.577 79.8298 31.6405 80.1604C31.979 81.9291 32.0368 83.7272 32.2021 85.514C32.3459 87.0698 32.3232 88.6313 32.3164 89.7942H32.3176ZM31.8975 95.1557C32.1466 95.2644 32.621 94.9915 32.6324 95.4988C32.6426 95.9506 32.2779 96.0887 31.8511 96.0887C31.4412 96.0887 31.0969 95.9336 31.0992 95.5248C31.1026 94.9779 31.6008 95.2621 31.8975 95.1568V95.1557ZM31.9122 94.3733C32.1206 94.4684 32.5146 94.2023 32.5214 94.6348C32.5271 94.9847 32.1919 95.0594 31.9088 95.0526C31.6054 95.0458 31.2328 94.9304 31.2577 94.5974C31.2838 94.243 31.6823 94.448 31.9122 94.3733Z" fill="#080808"/>
<path d="M41.6019 81.0278C41.278 80.4435 41.2576 79.7845 41.1501 79.1482C41.0651 78.6465 40.7855 78.334 40.3065 78.214C39.8445 78.0985 39.5014 78.3114 39.2682 78.6952C39.0598 79.0395 39.0338 79.3667 39.3168 79.7256C39.6044 80.0925 39.857 80.5092 39.6713 81.0244C39.7109 81.1376 39.7516 81.2509 39.7913 81.363C39.8264 81.4264 39.8819 81.4864 39.8932 81.5543C40.2884 83.7906 40.4492 86.0541 40.5601 88.3165C40.6416 89.9708 40.5794 91.6319 40.5862 93.2908C40.5862 93.5399 40.482 93.7426 40.3971 93.9702C40.0834 94.8194 39.6894 95.7037 40.4684 96.5348C41.1195 96.8791 41.7423 97.0263 42.3967 96.485C43.1894 95.8283 43.0557 95.0447 42.6277 94.1457C42.5032 93.8852 42.3922 93.6633 42.3933 93.3689C42.399 91.6365 42.4454 89.9017 42.3718 88.1716C42.279 85.9636 42.0616 83.7623 41.6528 81.586C41.6188 81.4037 41.6177 81.2146 41.6019 81.0278ZM41.8249 90.3366C41.8249 91.5493 41.8272 92.454 41.8227 93.3576C41.8227 93.5523 41.8849 93.8003 41.5577 93.8128C41.2384 93.8252 41.2622 93.5988 41.2576 93.3893C41.2395 92.4891 41.2203 91.59 41.1693 90.6898C41.0799 89.0978 41.1976 87.4956 41.03 85.9035C40.9406 85.0498 40.8466 84.1949 40.722 83.3456C40.5262 82.0129 40.2963 80.6847 39.8705 79.4007C39.8162 79.2387 39.7935 79.0961 39.9804 79.0281C40.14 78.9704 40.3246 78.9364 40.4435 79.1017C40.5182 79.2048 40.5533 79.3384 40.5964 79.4618C41.2271 81.2429 41.3765 83.1181 41.5747 84.9705C41.7762 86.8513 41.9166 88.7468 41.8238 90.3366H41.8249ZM41.7966 95.0368C42.0106 95.0889 42.2371 95.1761 42.2325 95.4082C42.228 95.6607 42.0525 95.8521 41.8204 95.9687C41.5384 96.1102 41.2588 96.1487 40.9723 95.9653C40.5069 95.6675 40.4786 95.4116 40.9179 95.0877C41.0244 95.0096 41.098 94.996 41.0085 94.8545C40.9032 94.6869 40.8319 94.4457 41.098 94.414C41.4331 94.3733 41.8521 94.2272 42.1057 94.5046C42.2903 94.7073 41.911 94.8341 41.7966 95.0368Z" fill="#080808"/>
<path d="M40.469 96.5342C39.6911 95.7031 40.084 94.8187 40.3977 93.9695C40.4815 93.7419 40.5868 93.5392 40.5868 93.2901C40.5811 91.6324 40.6423 89.9702 40.5607 88.3158C40.4486 86.0535 40.2879 83.7911 39.8938 81.5537C39.8814 81.4857 39.827 81.4257 39.7919 81.3623C39.3186 81.5593 38.7875 81.3646 38.3176 81.5842C38.3754 81.6692 38.4592 81.7099 38.5588 81.702C39.0095 81.6624 39.1782 81.8945 39.262 82.3157C39.4749 83.3993 39.5224 84.5022 39.6719 85.5938C39.9538 87.6455 39.8723 89.7131 39.9221 91.7762C39.938 92.4658 40.075 93.1463 39.9153 93.8393C39.8632 94.0646 39.8134 94.2877 39.6821 94.4654C39.2337 95.0724 39.51 95.6442 39.75 96.2126C39.8814 96.5263 40.1769 96.5432 40.4702 96.5319L40.469 96.5342Z" fill="#1F1F1F"/>
<path d="M38.3187 81.5863C38.7875 81.3655 39.3197 81.5602 39.793 81.3644C39.7533 81.2511 39.7126 81.1379 39.6729 81.0258C38.6754 81.0077 37.6891 81.2726 36.6859 81.1481C36.5557 81.1322 36.4073 81.1571 36.4209 81.3462C36.4323 81.5002 36.5466 81.5761 36.6882 81.5829C36.9678 81.5954 37.2475 81.5931 37.5272 81.5965C37.791 81.5942 38.056 81.592 38.3198 81.5886L38.3187 81.5863Z" fill="#131212"/>
<path d="M33.5557 81.2621C33.5569 81.372 33.558 81.4807 33.5591 81.5905C33.7199 81.5905 33.8841 81.6098 34.0426 81.586C34.2215 81.5588 34.4265 81.5124 34.2419 81.252C34.0132 81.2554 33.7845 81.2587 33.5557 81.2621Z" fill="#131212"/>
<path d="M32.3168 89.7944C32.3236 88.6315 32.3462 87.07 32.2024 85.5142C32.0371 83.7274 31.9794 81.9293 31.6408 80.1606C31.5774 79.83 31.4053 79.5356 31.3668 79.1914C31.3453 79.0023 31.1154 78.8902 30.9229 78.9298C30.718 78.9717 30.7089 79.1835 30.744 79.3499C30.9569 80.3758 31.1324 81.4062 31.2286 82.4502C31.3147 83.3809 31.4494 84.3072 31.5219 85.2379C31.7303 87.9238 31.6125 90.6164 31.6397 93.3057C31.6397 93.3623 31.6397 93.4189 31.6397 93.4755C31.6374 93.6997 31.6748 93.9058 31.9533 93.9194C32.2647 93.9341 32.3179 93.7224 32.3179 93.4699C32.3168 92.3772 32.3179 91.2845 32.3179 89.7944H32.3168Z" fill="#131212"/>
<path d="M31.8958 95.1554C31.5991 95.2607 31.1009 94.9765 31.0975 95.5234C31.0952 95.9333 31.4395 96.0885 31.8494 96.0873C32.2751 96.0873 32.6408 95.9492 32.6307 95.4974C32.6193 94.9901 32.1438 95.263 31.8958 95.1543V95.1554Z" fill="#131212"/>
<path d="M31.9102 94.3735C31.6804 94.4483 31.2807 94.2433 31.2558 94.5977C31.2309 94.9306 31.6045 95.0461 31.9068 95.0529C32.1899 95.0597 32.5262 94.985 32.5194 94.6351C32.5115 94.2026 32.1175 94.4686 31.9102 94.3735Z" fill="#131212"/>
<path d="M41.8262 90.3369C41.9191 88.7471 41.7787 86.8516 41.5771 84.9709C41.379 83.1184 41.2295 81.2433 40.5988 79.4622C40.5558 79.3387 40.5195 79.2063 40.4459 79.1021C40.327 78.9368 40.1425 78.9707 39.9828 79.0285C39.796 79.0953 39.8186 79.238 39.873 79.401C40.2987 80.6851 40.5286 82.0133 40.7245 83.346C40.849 84.1952 40.943 85.0501 41.0325 85.9039C41.2 87.4959 41.0823 89.0982 41.1717 90.6902C41.2227 91.5904 41.2408 92.4894 41.2601 93.3896C41.2646 93.5991 41.2408 93.8267 41.5601 93.8131C41.8874 93.7995 41.824 93.5527 41.8251 93.3579C41.8296 92.4543 41.8273 91.5496 41.8273 90.3369H41.8262Z" fill="#131212"/>
<path d="M41.7984 95.037C41.9116 94.8343 42.2921 94.7075 42.1075 94.5048C41.855 94.2263 41.436 94.3735 41.0997 94.4142C40.8348 94.4459 40.9061 94.6882 41.0103 94.8547C41.0986 94.9962 41.025 95.0098 40.9197 95.0879C40.4804 95.4107 40.5075 95.6677 40.974 95.9655C41.2617 96.1489 41.5413 96.1104 41.8221 95.9689C42.0543 95.8534 42.2298 95.6609 42.2343 95.4084C42.2388 95.1763 42.0112 95.0902 41.7984 95.037Z" fill="#131212"/>
<path d="M4.15622 39.246C5.03006 38.8902 5.92739 38.7038 6.84009 38.6857C6.41808 38.2993 6.19488 37.7382 6.13614 36.9645C5.98704 35.0046 5.87136 32.6763 6.14336 30.2678C6.45784 27.4847 7.25397 24.8159 8.51096 22.3345C10.34 18.7245 12.5332 15.9998 15.2161 14.0057C18.7738 11.3621 23.0454 9.97057 28.2776 9.7499C31.0383 9.63371 33.8062 9.84807 36.5046 10.3876C41.763 11.4387 46.0355 13.4815 49.5661 16.633C51.4656 18.3291 52.7913 19.8927 53.7365 21.5545C55.0694 23.8963 55.7905 26.5515 55.8818 29.4473C55.8908 29.7409 55.9044 30.0435 55.9179 30.3363C55.9685 31.4486 56.02 32.5988 55.8664 33.7769C55.6432 35.4865 55.4498 37.16 55.542 38.8353L55.5438 38.8713C55.5727 39.9936 55.5049 41.105 55.4399 42.1796C55.4137 42.6119 55.3866 43.0595 55.3667 43.4955C55.3089 44.7655 55.2781 46.0643 55.2492 47.3198C55.214 48.8384 55.1769 50.4083 55.0911 51.9611C54.9546 54.4318 54.4675 56.6691 53.6027 58.801C52.4108 61.7364 50.4788 64.3466 47.6964 66.7794C45.7671 68.4664 43.8089 69.6076 41.7106 70.2696C40.234 70.7353 38.649 71.0271 36.7224 71.1884C36.1359 71.237 35.5449 71.2622 34.9467 71.2622C32.7526 71.2622 30.4672 70.9308 28.0129 70.2597C26.0058 69.7112 24.1832 68.8465 22.5132 67.9945C18.3988 65.8949 15.0381 62.7479 12.5241 58.6407C11.8084 57.4716 11.7 56.4025 12.197 55.4495C10.949 56.0548 9.5827 56.1548 8.19287 55.7342C5.16019 54.8164 3.01218 52.9186 1.80941 50.094C1.18769 48.634 0.829843 47.0361 0.715078 45.2095C0.534346 42.3399 1.757 40.2214 4.15712 39.2451L4.15622 39.246Z" fill="#9A735E"/>
<path d="M31.5366 58.6442C33.5035 58.2742 35.4641 57.9074 37.3125 57.018C37.9762 56.6985 38.6129 56.3359 39.1229 55.7182C39.3601 55.4308 39.5541 55.1033 39.5778 54.6744C39.6042 54.1919 39.4611 53.7815 39.1063 53.5138C38.7368 53.2349 38.3285 53.2059 38.0255 53.5349C36.5034 55.1899 34.5432 55.4729 32.6253 55.8669C31.4833 56.1014 30.3211 56.2224 29.1686 56.3967C29.0424 56.4154 28.9155 56.4366 28.7934 56.475C28.1867 56.6653 27.8743 57.1949 27.9721 57.8572C28.0677 58.5092 28.5281 58.9457 29.1559 58.9019C29.9522 58.8464 30.7431 58.7336 31.5358 58.6455L31.5366 58.6442Z" fill="#0E1A1E"/>
<path d="M44.255 57.646C44.8735 57.8695 45.5866 57.7617 46.2083 57.9762C46.3994 58.0427 46.5985 58.1007 46.8033 58.1125C47.2835 58.1401 47.7384 57.7728 47.9278 57.2372C48.1181 56.6969 47.9975 56.1446 47.6005 55.859C47.4221 55.7298 47.2197 55.6339 47.0141 55.5634C44.9563 54.8491 42.8656 54.3094 40.8621 53.4561C40.6174 53.3525 40.3768 53.2376 40.0951 53.2475C39.6276 53.2651 39.2604 53.5118 39.0436 54.0565C38.826 54.6035 38.9208 55.0526 39.2487 55.3881C39.5131 55.6587 39.852 55.7976 40.1826 55.9348C41.5413 56.5019 42.9056 57.0532 44.2684 57.609C44.2639 57.6213 44.2598 57.6325 44.2554 57.6449L44.255 57.646Z" fill="#0E1A1E"/>
<path d="M17.6957 21.8308C17.4153 24.494 14.365 35.4965 12.7882 41.2782L6.83272 38.6505C4.20464 33.0439 5.7815 20.6044 17.6957 13.5962C31.8149 5.29105 43.566 11.2014 48.3548 15.5231C50.2821 16.2239 55.4344 21.9009 50.809 19.3779C45.0272 16.2243 18.0461 18.5019 17.6957 21.8308Z" fill="url(#paint0_linear_10763_642)"/>
<path d="M29.4199 9.05398C25.9174 8.9486 22.506 9.47911 19.2673 10.8824C13.8716 13.2215 10.1394 17.2179 7.79624 22.5392C6.34496 25.834 5.58137 29.3089 5.30214 32.8892C5.21268 34.0313 5.35545 35.1652 5.57143 36.2884C5.74674 37.199 5.55607 37.5386 4.68946 37.8835C4.34064 38.0223 3.99183 38.1637 3.65657 38.3312C1.24109 39.5363 0.105187 41.5089 0.0103022 44.1812C-0.109885 47.567 0.822695 50.6041 2.8469 53.3125C4.16534 55.0761 5.86331 56.3163 8.0077 56.891C8.54086 57.0342 9.10565 57.0738 9.65959 57.1225C10.8262 57.2252 11.6404 57.8016 12.1871 58.8293C13.23 60.7892 14.5412 62.5609 16.0909 64.1515C18.5841 66.7122 21.4957 68.6613 24.7688 70.1096C27.3569 71.2553 30.0091 72.1524 32.8313 72.4587C38.9138 73.1198 44.2382 71.5129 48.6029 67.122C52.2609 63.4418 54.4586 59.041 55.1155 53.8935C55.393 51.7192 55.4607 49.5287 55.5836 47.3427C55.7761 43.9128 55.7291 40.4731 55.9596 37.045C56.068 35.4291 56.2614 33.8187 56.3436 32.2019C56.4864 29.3954 56.4999 26.5933 55.5963 23.8759C54.6104 20.9099 52.7434 18.532 50.4508 16.4965C46.1856 12.7099 41.1775 10.4321 35.5504 9.49532C33.5271 9.15846 31.4884 9.00444 29.4199 9.05398ZM54.3266 38.9022C54.3655 40.4181 54.2191 41.9277 54.1504 43.44C54.0221 46.2564 54.0302 49.0774 53.8757 51.8948C53.7528 54.1267 53.3145 56.2749 52.4741 58.3456C51.2614 61.3314 49.3023 63.7597 46.894 65.8656C45.2494 67.3031 43.442 68.4488 41.3447 69.1099C39.8066 69.5944 38.2315 69.8412 36.6221 69.9763C33.7955 70.2132 31.0438 69.8268 28.3374 69.0873C26.4984 68.5848 24.7679 67.7786 23.0717 66.9131C19.0441 64.8577 15.9202 61.8502 13.5679 58.0088C12.9941 57.0702 12.8766 56.2722 13.7234 55.4328C14.1399 55.0193 14.0351 54.3979 13.595 53.9322C13.2336 53.5503 12.92 53.5431 12.3615 53.9412C11.1922 54.7752 9.90991 54.9824 8.5499 54.5708C5.92657 53.7773 4.01804 52.1614 2.93545 49.6187C2.32458 48.1839 2.0327 46.6726 1.936 45.1333C1.7878 42.7761 2.73574 41.1387 4.62168 40.3713C5.88229 39.8588 7.17995 39.7669 8.50833 40.0803C9.65146 40.3506 10.6699 40.8802 11.6359 41.5305C12.0706 41.8223 12.5314 41.7827 12.7826 41.4764C13.0574 41.1414 13.0357 40.5685 12.6688 40.2488C11.4805 39.2112 10.1991 38.3366 8.57972 38.1114C7.69232 37.9889 7.42303 37.7511 7.35616 36.8712C7.1926 34.7158 7.11579 32.5568 7.35887 30.4023C7.65708 27.7651 8.40169 25.2539 9.60356 22.8815C11.1624 19.8029 13.145 17.0639 15.9491 14.9797C19.6225 12.2497 23.8371 11.1535 28.3328 10.9644C30.9977 10.8518 33.6446 11.0553 36.2679 11.5795C40.9407 12.5136 45.1789 14.3465 48.7556 17.5386C50.2719 18.8923 51.6645 20.3704 52.6793 22.1537C53.9724 24.4253 54.5851 26.8887 54.6664 29.4845C54.7098 30.8626 54.8399 32.2461 54.6601 33.6196C54.4306 35.3751 54.23 37.1279 54.3275 38.9022H54.3266Z" fill="#272325"/>
<path d="M7.24055 42.4758C7.09144 42.4686 7.00107 42.4659 6.91071 42.4596C6.07392 42.4073 5.8471 42.5334 5.7983 43.0756C5.72511 43.88 6.14079 44.4708 6.86191 44.5249C7.38784 44.5636 7.91197 44.5915 8.42615 44.7203C9.29005 44.9365 10.0455 45.3544 10.7187 45.9281C10.9663 46.1389 11.2203 46.3398 11.5655 46.1371C11.9043 45.9381 11.9269 45.6102 11.8926 45.2679C11.8329 44.678 11.5094 44.2402 11.0766 43.8646C9.95876 42.8973 8.66833 42.4136 7.24055 42.4749V42.4758Z" fill="#272325"/>
<path opacity="0.2" d="M22.1056 37.3728C22.0839 38.1159 22.7479 38.4799 23.4705 38.068C24.4317 37.5188 25.3236 36.8607 26.3759 36.4554C28.6934 35.5619 30.8871 35.5075 32.9528 37.1157C33.4041 37.4665 33.9531 37.9808 34.5238 37.229C35.0988 36.4707 34.5433 36.0261 34.0247 35.6339C31.3601 33.6268 28.4937 33.4307 25.5037 34.7905C24.6596 35.1741 23.8567 35.6535 23.0647 36.1394C22.6112 36.4184 22.1664 36.7583 22.1078 37.3728H22.1056Z" fill="black"/>
<path opacity="0.2" d="M47.0287 34.1653C45.2321 34.0695 43.4354 35.0218 41.7494 36.2443C41.1701 36.6648 41.0551 37.3295 41.424 37.8808C41.8145 38.4648 42.3331 38.1794 42.8192 37.8242C43.9497 36.9961 45.1171 36.2399 46.5709 36.0852C48.3415 35.8956 49.9038 36.3336 51.2968 37.4624C51.7482 37.8263 52.3601 38.3995 52.8765 37.6869C53.343 37.0418 53.0306 36.436 52.3774 35.9435C50.8954 34.8213 49.281 34.1414 47.0287 34.1653Z" fill="black"/>
<path opacity="0.2" d="M36.9816 40.8818C36.9339 42.4138 35.9119 43.5012 34.2867 43.7583C33.946 43.8128 33.5663 43.693 33.2755 43.9763C33.4534 44.2465 33.4903 44.4513 33.1757 44.7019C32.5595 45.1944 31.9584 45.7196 31.4203 46.2949C31.0601 46.6806 30.8756 47.2123 31.3378 47.6569C31.7197 48.023 32.2275 48.0186 32.6246 47.6874C34.393 46.2099 36.1137 44.691 37.2919 42.6491C37.7151 41.9169 37.6109 41.3787 36.9838 40.884L36.9816 40.8818Z" fill="black"/>
<path opacity="0.2" d="M44.807 44.2294C43.7112 43.9897 42.6133 43.75 41.5175 43.5103C42.5352 45.1424 43.9912 46.3671 45.3755 47.6528C45.7314 47.9819 46.2001 47.9449 46.5473 47.5831C46.9226 47.1952 46.9183 46.779 46.5993 46.3127C46.0764 45.5478 45.1 45.186 44.807 44.2272V44.2294Z" fill="black"/>
<path d="M40.9478 39.7178C41.6964 39.0531 42.6077 38.7459 43.5711 38.5868C47.1992 37.9941 50.7881 37.7456 54.0928 39.8594C54.8913 41.0318 54.861 41.6376 53.9496 42.7359C52.9211 43.5575 51.7494 43.9432 50.5104 44.1219C48.6638 44.6209 46.8194 44.658 44.9729 44.2308C44.9186 44.2308 44.8644 44.2308 44.8101 44.2287C43.7144 43.989 42.6164 43.7493 41.5206 43.5095C41.2906 43.2894 41.0693 43.0606 40.8284 42.8514C39.5612 41.7422 39.7847 40.7507 40.9456 39.7178H40.9478ZM42.2106 41.5047C42.6251 41.9798 45.2962 42.7425 45.8321 42.457C46.3616 42.1759 45.9385 41.6115 46.0622 41.2367C46.3312 40.0795 45.8213 39.9314 44.8557 40.1275C43.9791 40.3062 43.1307 40.5067 42.3148 40.8836C41.8917 41.0776 41.9741 41.2367 42.2106 41.5047Z" fill="#070909"/>
<path d="M23.3776 39.1863C23.4644 39.1296 23.5794 39.1187 23.6814 39.0795C26.5998 37.9768 29.6246 38.0204 32.6299 38.4323C34.0056 38.6219 35.4702 38.8964 36.5161 40.0361C36.7591 40.1102 36.974 40.2061 36.8785 40.5308C36.9132 40.6485 36.9458 40.7662 36.9805 40.8838C36.9327 42.4158 35.9107 43.5032 34.2855 43.7603C33.9448 43.8148 33.5651 43.695 33.2743 43.9783C30.0022 44.7235 26.7604 44.5514 23.6054 43.4487C22.7028 43.1327 21.7762 42.5727 21.7285 41.348C21.6829 40.1604 22.5704 39.7049 23.3819 39.1863H23.3776ZM24.1175 41.6662C24.7229 41.9495 25.3457 42.2349 25.9923 42.37C27.3116 42.6468 27.3788 42.5553 27.3723 41.0887C27.624 40.1386 27.0316 40.0383 26.2288 40.1669C25.4845 40.2868 24.7902 40.5526 24.1088 40.8708C23.4904 41.1584 23.664 41.4548 24.1153 41.6662H24.1175Z" fill="#070909"/>
<path d="M46.0613 41.2365C46.3304 40.0794 45.8205 39.9312 44.8549 40.1273C43.9783 40.306 43.1299 40.5065 42.314 40.8835C41.8909 41.0774 41.9733 41.2365 42.2098 41.5045C42.6243 41.9796 45.2954 42.7423 45.8313 42.4568C46.3608 42.1757 45.9377 41.6113 46.0613 41.2365Z" fill="#DFDAD2"/>
<path d="M27.373 41.0884C27.6248 40.1383 27.0324 40.038 26.2295 40.1666C25.4853 40.2865 24.7909 40.5523 24.1096 40.8705C23.4912 41.1581 23.6647 41.4545 24.1161 41.6659C24.7215 41.9492 25.3442 42.2346 25.9908 42.3697C27.3101 42.6465 27.3774 42.555 27.3709 41.0884H27.373Z" fill="#DFDAD2"/>
<path d="M52.694 26.9121C48.6958 28.3278 45.1497 30.6475 41.4318 32.6168C40.8186 32.9427 40.349 33.5734 40.6889 34.3758C41.0534 35.2343 41.8208 35.2764 42.6022 35.1362C43.6569 34.947 44.4769 34.2497 45.4055 33.7836C48.1947 32.3785 50.9945 30.9874 53.5175 29.1232C54.2428 28.0124 54.1447 27.21 52.694 26.9121Z" fill="#060707"/>
<path d="M36.4277 36.0093C37.2057 36.0093 37.6332 35.771 37.8819 35.2349C38.1202 34.7268 37.8679 34.3168 37.5736 33.9699C36.9569 33.2445 36.1054 32.824 35.2644 32.4351C31.9425 30.9038 28.6101 29.4005 25.2777 27.8903C25.12 27.8202 24.9483 27.7676 24.7801 27.7256C23.792 27.4943 22.6076 26.8741 22.0574 28.2232C21.5634 29.4321 22.6321 29.9332 23.5256 30.3992C27.0823 32.2529 30.7511 33.8542 34.4339 35.4311C35.1207 35.7254 35.8846 35.8516 36.4277 36.0023V36.0093Z" fill="#060707"/>
<path d="M27.8556 19.1273C28.5516 18.556 29.6918 17.6581 30.0147 17.2128C30.2618 17.3351 34.787 17.0904 34.8891 17.0489C35.072 16.9265 35.4855 16.8458 35.9907 16.7626C36.2134 16.5179 36.1006 16.0682 36.4385 14.8658C36.5008 14.6438 36.6523 14.6246 36.6825 14.7062C36.8263 15.094 37.1445 15.5647 38.3573 15.9093C39.0698 16.1118 39.3958 15.2616 41.5593 15.8696C42.0034 15.9943 41.9926 16.2379 42.0242 16.4409C42.1257 17.0929 42.1424 17.7638 42.76 18.1107C42.9038 18.1914 43.1141 18.2118 43.146 18.0667C43.2267 17.6997 43.2822 17.3282 43.4934 17.2323L43.4997 17.2295C43.7511 17.1154 45.6414 16.2574 45.633 17.2342C45.6318 17.3767 45.4812 17.6845 45.6134 18.0306C45.6758 18.1939 45.7909 18.3628 45.9199 18.3548C46.5762 18.3138 47.601 18.3022 47.9788 18.723C48.1616 18.9267 48.1629 19.2037 48.284 19.3958C48.5286 19.7842 48.7492 20.3939 49.2645 20.6803C49.6309 20.884 50.2566 21.0727 50.8958 20.9635C51.1392 20.9219 51.2619 20.8406 51.2395 20.7384C51.1368 20.2687 50.1617 19.0891 50.5679 19.2521C50.7667 19.3318 51.0175 19.5905 51.3187 19.9011L51.3441 19.9274C51.9956 20.599 52.369 20.8848 52.6476 21.2718C53.0158 21.7831 53.6455 22.3826 54.0954 22.9643C54.4422 23.4126 54.4363 24.3176 54.8906 24.3075C54.9732 24.3057 55.0815 24.1669 55.2172 24.0824C55.7072 23.7772 56.4316 23.6152 56.4999 23.0413C56.5195 22.8768 56.5003 22.6714 56.4589 22.4908C56.3139 21.859 55.9037 21.3738 55.479 20.7788C55.3769 20.6357 55.2875 20.4729 55.4845 20.454C56.117 20.3934 56.7109 20.3891 56.9091 20.2289C57.0112 20.1463 57.1221 20.0263 57.1115 19.9023C57.0907 19.6582 56.3707 19.3436 56.6228 18.8423C56.725 18.6392 57.0166 18.5141 57.1122 18.1878C57.1727 17.981 57.2277 17.629 57.0895 17.4342C56.8449 17.0892 56.3189 16.9248 56.4393 16.8452C56.5623 16.7638 56.7898 16.6561 56.9085 16.4568C56.9696 16.354 57.01 16.2329 56.9678 16.1099C56.9256 15.987 56.7523 15.8622 56.7855 15.7637C56.8473 15.5809 56.9787 15.3594 57.1947 15.275C57.6645 15.0915 58.2808 14.9212 58.4988 14.3973C58.6003 14.1532 58.8727 13.6332 58.5575 13.3984C58.3129 13.2162 57.5715 13.2041 56.9256 12.7654C56.6834 12.6008 56.6253 12.3716 56.725 12.2357C57.0528 11.7885 57.7553 11.5295 57.8455 10.8698C57.8651 10.7267 57.8247 10.6056 57.7422 10.545C57.6596 10.4845 57.5389 10.4811 57.3947 10.4637C56.5537 10.3621 55.5891 10.6494 55.0912 10.5658C54.8471 10.5248 54.557 10.4372 54.3988 10.197C54.3175 10.0734 54.2562 9.86015 54.4025 9.83119C54.8105 9.75045 55.3421 9.6918 55.5224 9.38162C55.6643 9.13756 56.001 8.7649 55.7861 8.54547C55.164 7.91056 52.4601 6.5837 51.1551 6.81507C50.234 6.97838 48.5616 7.64021 48.7317 7.13986C48.7733 7.01753 49.016 6.88561 49.2229 6.60771C49.3458 6.44256 49.4962 6.11864 49.2571 6.07923C48.5225 5.95812 47.4836 5.94897 46.8949 5.58929C46.6936 5.46634 46.7809 5.32204 46.7126 5.24309C46.197 4.64671 44.6102 4.44562 44.5516 3.83626C44.532 3.63257 44.7377 3.46115 44.7767 3.24477C44.8171 3.02091 44.84 2.7229 44.6317 2.53096C44.3669 2.2869 43.8727 2.01068 43.4488 2.20739C43.1851 2.32972 43.0122 2.61137 42.7356 2.83985C42.6126 2.94139 42.451 2.99026 42.431 2.79398C42.3704 2.2025 42.5066 1.24384 42.1037 1.18591C41.5508 1.10639 40.0259 0.618856 39.1267 1.63915C38.9451 1.84528 38.9134 2.13701 38.9867 2.33156C39.109 2.65635 39.9743 3.27128 39.5549 3.67539C39.4711 3.75613 39.263 3.78732 39.0851 3.73533C38.4533 3.55061 37.7009 3.73472 37.293 3.42889C36.6917 2.97809 33.5129 2.00259 32.3782 2.79887C32.1751 2.94139 32.0553 3.21972 31.8277 3.30778C31.725 3.34753 31.646 3.26644 31.5849 3.24539C30.9371 3.02213 28.7378 2.81826 28.362 3.41115C28.2201 3.63502 27.9929 4.07045 27.9755 3.93779C27.9351 3.63135 27.9227 2.96406 27.6268 3.02213C26.5796 3.22765 24.9923 4.11893 22.8332 4.04178C21.6863 4.00079 20.358 3.9701 19.8801 4.16472C19.7779 4.20631 19.6764 4.28116 19.6568 4.38981C19.6164 4.61368 19.8121 4.82551 19.9021 5.10363C19.9418 5.22657 19.9141 5.37061 19.8189 5.40824C19.2445 5.63516 17.5633 6.92064 16.1067 6.28353C15.4522 5.99727 14.3862 5.66129 13.7836 6.08168C13.375 6.36672 13.0857 6.92025 12.5187 7.67446C12.1517 8.16257 9.57105 8.1965 8.01312 8.62988C7.50299 8.77179 6.79121 8.78949 6.58733 9.34553C6.52678 9.51068 6.51122 9.75534 6.54757 9.9364C6.60874 10.241 6.91061 10.3888 6.95556 10.6912C7.01611 11.0986 7.02589 11.5145 6.83077 11.668C6.7274 11.7494 6.56525 11.7871 6.402 11.8307C5.79034 11.994 7.0604 12.1773 6.54353 12.3201C5.95205 12.4834 5.33938 12.4218 5.01559 12.8308C4.93424 12.9336 4.89387 13.0547 4.99846 13.1152C5.10306 13.1758 5.42123 13.1516 5.46638 13.4253C5.58749 14.1593 5.62264 14.8436 5.42296 14.971C4.97338 15.2579 4.56767 15.6644 4.11766 16.2366C3.6693 16.8066 3.1575 16.9161 2.69064 17.2752C2.24046 17.6214 1.85609 17.8228 1.81535 18.0709C1.79517 18.1939 1.79517 18.315 2.06553 18.3756C2.33588 18.4361 3.00503 18.3487 3.1231 18.7065C3.3855 19.5016 3.29537 20.1473 3.1604 20.3953C2.89371 20.8852 2.46638 21.4481 2.71388 21.5568C3.91319 22.0835 3.60102 21.6677 3.69194 22.3135C3.83568 23.3343 3.71059 24.2336 4.14091 24.636C4.48895 24.9614 5.77516 24.6541 5.89455 25.4109C5.97935 25.9484 6.02707 26.711 6.10424 27.4028C6.05834 27.8119 6.05481 28.2312 5.99707 28.5261C5.94798 28.777 5.71203 28.9152 5.52915 29.0577C5.45096 29.1186 5.34869 29.1488 5.24586 29.1576C5.18896 29.1596 5.1631 29.1605 5.18295 29.1604C5.20381 29.1603 5.22485 29.1594 5.24586 29.1576C5.54141 29.1475 6.67435 29.1108 6.58818 29.0595C6.32058 28.9002 6.19295 28.1982 6.10424 27.4028C6.15657 26.9365 6.26398 26.4834 6.56959 26.2434C6.85463 26.0195 7.2206 25.792 7.4663 25.94C7.66937 26.0624 7.90343 26.4461 8.30244 26.6122C8.44131 26.6701 8.52447 26.5984 8.62084 26.5154L8.62846 26.5089C9.05663 26.1406 9.2503 25.5222 10.0983 25.143C10.324 25.0421 10.5789 25.0083 10.7289 25.0837C10.9724 25.206 11.1864 26.5013 11.4819 26C11.5424 25.8972 11.3352 25.6381 11.4403 25.3657C11.836 24.3399 13.1076 22.7643 13.7872 22.6566C13.9108 22.637 14.1219 22.6644 14.153 22.8848C14.2338 23.4554 14.2505 23.9567 14.3775 24.1668C14.4393 24.269 14.52 24.3497 14.6228 24.3693C14.7255 24.3888 14.861 24.3636 14.9488 24.2659C15.1317 24.0622 15.2453 23.6903 15.5397 23.5723C16.4504 23.2071 17.9425 23.0759 17.883 22.8383C17.8218 22.5942 17.7171 22.3525 17.6793 22.0835C17.6591 21.9397 17.6591 21.7783 17.8047 21.6975C17.9502 21.6168 18.2662 21.5625 18.3949 21.6792C18.5974 21.8627 18.6644 22.1805 18.9044 22.311C19.1283 22.4327 21.3758 23.1633 21.9823 22.0835C22.0631 21.9397 22.0698 21.7761 22.0215 21.6351C21.8184 21.0418 21.6047 20.2694 22.0239 19.6772C22.2686 19.3316 22.4824 18.9991 22.7176 18.9658C23.0026 18.9254 23.4092 18.8957 23.6956 19.09C23.8173 19.1726 23.8239 19.3176 23.9195 19.4166C24.3923 19.9066 25.3259 20.4599 25.9802 20.2295C26.675 19.9848 27.3648 19.5301 27.8556 19.1273Z" fill="black"/>
<path d="M30.0147 17.2128C29.6918 17.6581 28.5516 18.556 27.8556 19.1273C27.3648 19.5301 26.675 19.9848 25.9802 20.2295C25.3259 20.4599 24.3923 19.9066 23.9195 19.4166C23.8239 19.3176 23.8173 19.1726 23.6956 19.09C23.4092 18.8957 23.0026 18.9254 22.7176 18.9658C22.4824 18.9991 22.2686 19.3316 22.0239 19.6772C21.6047 20.2694 21.8184 21.0418 22.0215 21.6351C22.0698 21.7761 22.0631 21.9397 21.9823 22.0835C21.3758 23.1633 19.1283 22.4327 18.9044 22.311C18.6644 22.1805 18.5974 21.8627 18.3949 21.6792C18.2662 21.5625 17.9502 21.6168 17.8047 21.6975C17.6591 21.7783 17.6591 21.9397 17.6793 22.0835C17.7171 22.3525 17.8218 22.5942 17.883 22.8383C17.9425 23.0759 16.4504 23.2071 15.5397 23.5723C15.2453 23.6903 15.1317 24.0622 14.9488 24.2659C14.861 24.3636 14.7255 24.3888 14.6228 24.3693C14.52 24.3497 14.4393 24.269 14.3775 24.1668C14.2505 23.9567 14.2338 23.4554 14.153 22.8848C14.1219 22.6644 13.9108 22.637 13.7872 22.6566C13.1076 22.7643 11.836 24.3399 11.4403 25.3657C11.3352 25.6381 11.5424 25.8972 11.4819 26C11.1864 26.5013 10.9724 25.206 10.7289 25.0837C10.5789 25.0083 10.324 25.0421 10.0983 25.143C9.2503 25.5222 9.05663 26.1406 8.62846 26.5089C8.52881 26.5946 8.44496 26.6716 8.30244 26.6122C7.90343 26.4461 7.66937 26.0624 7.4663 25.94C7.22059 25.792 6.85463 26.0195 6.56959 26.2434C5.99594 26.694 6.12063 27.8949 5.99708 28.5261C5.94798 28.777 5.71203 28.9152 5.52915 29.0577C5.43499 29.1311 5.30589 29.1598 5.18295 29.1604C5.06 29.1611 6.69094 29.1207 6.58818 29.0595C6.08781 28.7617 6.07683 26.5664 5.89456 25.4109C5.77516 24.6541 4.48895 24.9614 4.14091 24.636C3.71059 24.2336 3.83568 23.3343 3.69194 22.3135C3.60102 21.6677 3.91319 22.0835 2.71388 21.5568C2.46638 21.4481 2.89371 20.8852 3.1604 20.3953C3.29537 20.1473 3.3855 19.5016 3.12309 18.7065C3.00503 18.3487 2.33588 18.4361 2.06552 18.3756C1.79517 18.315 1.79517 18.1939 1.81535 18.0709C1.85609 17.8228 2.24046 17.6214 2.69064 17.2752C3.1575 16.9161 3.66931 16.8066 4.11766 16.2366C4.56767 15.6644 4.97338 15.2579 5.42296 14.971C5.62264 14.8436 5.5875 14.1593 5.46639 13.4253C5.42123 13.1516 5.10306 13.1758 4.99846 13.1152C4.89387 13.0547 4.93424 12.9336 5.01559 12.8308C5.33938 12.4218 5.95205 12.4834 6.54353 12.3201C7.0604 12.1773 5.79034 11.994 6.402 11.8307C6.56525 11.7871 6.7274 11.7494 6.83077 11.668C7.02589 11.5145 7.01611 11.0986 6.95556 10.6912C6.91061 10.3888 6.60874 10.241 6.54757 9.9364C6.51122 9.75534 6.52678 9.51068 6.58733 9.34553C6.79121 8.78949 7.503 8.77179 8.01312 8.62988C9.57105 8.1965 12.1517 8.16257 12.5187 7.67446C13.0857 6.92025 13.375 6.36672 13.7836 6.08168C14.3862 5.66129 15.4522 5.99727 16.1067 6.28353C17.5633 6.92064 19.2445 5.63516 19.8189 5.40824C19.9141 5.37061 19.9418 5.22657 19.9021 5.10363C19.8121 4.82551 19.6164 4.61368 19.6568 4.38981C19.6764 4.28116 19.7779 4.20631 19.8801 4.16472C20.358 3.9701 21.6863 4.00079 22.8332 4.04178C24.9923 4.11893 26.5796 3.22765 27.6268 3.02213C27.9227 2.96406 27.9351 3.63135 27.9755 3.93779C27.9929 4.07045 28.2201 3.63502 28.362 3.41115C28.7378 2.81826 30.9371 3.02213 31.5849 3.24539C31.646 3.26644 31.725 3.34753 31.8277 3.30778C32.0553 3.21972 32.1751 2.94139 32.3782 2.79887C33.5129 2.00259 36.6917 2.97809 37.293 3.42889C37.7009 3.73472 38.4533 3.55061 39.0851 3.73533C39.263 3.78732 39.4711 3.75613 39.5549 3.67539C39.9743 3.27128 39.109 2.65635 38.9867 2.33156C38.9134 2.13701 38.9451 1.84528 39.1267 1.63915C40.0259 0.618856 41.5508 1.10639 42.1037 1.18591C42.5066 1.24384 42.3704 2.2025 42.4309 2.79398C42.451 2.99026 42.6126 2.94139 42.7356 2.83985C43.0122 2.61137 43.1851 2.32972 43.4488 2.20739C43.8727 2.01068 44.3669 2.2869 44.6317 2.53096C44.84 2.7229 44.8171 3.0209 44.7767 3.24477C44.7377 3.46115 44.532 3.63257 44.5516 3.83626C44.6102 4.44562 46.197 4.64671 46.7126 5.24309C46.7809 5.32204 46.6936 5.46634 46.8949 5.58929C47.4836 5.94897 48.5225 5.95812 49.2571 6.07923C49.4962 6.11864 49.3458 6.44256 49.2229 6.60771C49.016 6.88561 48.7733 7.01753 48.7317 7.13986C48.5616 7.64021 50.234 6.97838 51.1551 6.81507C52.4601 6.5837 55.164 7.91056 55.7861 8.54547C56.001 8.7649 55.6643 9.13756 55.5224 9.38162C55.3421 9.6918 54.8105 9.75045 54.4025 9.83119C54.2562 9.86015 54.3175 10.0734 54.3988 10.197C54.557 10.4372 54.8471 10.5248 55.0912 10.5658C55.5891 10.6494 56.5537 10.3621 57.3947 10.4637C57.5389 10.4811 57.6596 10.4845 57.7422 10.545C57.8247 10.6056 57.8651 10.7267 57.8455 10.8698C57.7553 11.5295 57.0528 11.7885 56.725 12.2357C56.6253 12.3716 56.6834 12.6008 56.9256 12.7654C57.5715 13.2041 58.3129 13.2162 58.5575 13.3984C58.8727 13.6332 58.6003 14.1532 58.4988 14.3973C58.2808 14.9212 57.6645 15.0915 57.1947 15.275C56.9787 15.3594 56.8473 15.5809 56.7855 15.7637C56.7523 15.8622 56.9256 15.987 56.9678 16.1099C57.01 16.2329 56.9696 16.354 56.9085 16.4568C56.7898 16.6561 56.5623 16.7638 56.4393 16.8452C56.3189 16.9248 56.8449 17.0892 57.0895 17.4342C57.2277 17.629 57.1727 17.981 57.1122 18.1878C57.0166 18.5141 56.725 18.6392 56.6228 18.8423C56.3707 19.3436 57.0907 19.6582 57.1115 19.9023C57.1221 20.0263 57.0112 20.1463 56.9091 20.2289C56.7109 20.3891 56.117 20.3934 55.4845 20.454C55.2875 20.4729 55.3769 20.6357 55.479 20.7788C55.9037 21.3738 56.3139 21.859 56.4589 22.4908C56.5003 22.6714 56.5195 22.8768 56.4999 23.0413C56.4316 23.6153 55.7072 23.7772 55.2172 24.0824C55.0815 24.1669 54.9732 24.3057 54.8906 24.3075C54.4363 24.3176 54.4422 23.4126 54.0954 22.9643C53.6455 22.3826 53.0158 21.7831 52.6476 21.2718C52.369 20.8848 51.9956 20.599 51.3441 19.9274C51.0316 19.6052 50.7722 19.334 50.5679 19.2521C50.1617 19.0891 51.1368 20.2687 51.2395 20.7384C51.2619 20.8406 51.1392 20.9219 50.8958 20.9635C50.2566 21.0727 49.6309 20.884 49.2645 20.6803C48.7492 20.3939 48.5286 19.7842 48.284 19.3958C48.1629 19.2037 48.1616 18.9267 47.9788 18.723C47.601 18.3022 46.5762 18.3138 45.9199 18.3548C45.7909 18.3628 45.6758 18.1939 45.6134 18.0306C45.4812 17.6845 45.6318 17.3767 45.633 17.2342C45.6415 16.2487 43.7173 17.1308 43.4934 17.2323C43.2822 17.3282 43.2267 17.6997 43.146 18.0667C43.1141 18.2118 42.9038 18.1914 42.76 18.1107C42.1424 17.7638 42.1257 17.0929 42.0242 16.4409C41.9926 16.2379 42.0034 15.9943 41.5593 15.8696C39.3958 15.2616 39.0698 16.1118 38.3573 15.9093C37.1445 15.5647 36.8263 15.094 36.6825 14.7062C36.6523 14.6246 36.5008 14.6438 36.4385 14.8658C36.1006 16.0682 36.2134 16.5179 35.9907 16.7626C35.4855 16.8458 35.072 16.9265 34.8891 17.0489C34.787 17.0904 30.2618 17.3351 30.0147 17.2128Z" stroke="#272325" stroke-width="2" stroke-linecap="round"/>
<path d="M47.6889 65.7171C47.6953 65.7131 47.6953 65.7091 47.6953 65.7051C47.6942 65.7079 47.692 65.7119 47.6889 65.7171C47.6689 65.7296 47.5871 65.7421 47.2511 65.7547C46.8068 65.7714 45.9183 65.7878 45.4195 65.7881C44.7025 65.7885 44.4395 65.7051 44.2231 65.7462C43.9535 65.7975 44.4873 66.1528 44.4878 66.4353C44.488 66.5043 44.4385 66.5517 44.4051 66.5936C44.2075 66.8413 43.5749 66.6694 43.2341 66.636C43.1005 66.6229 42.7622 66.5527 42.3135 66.6103C42.1517 66.631 42.1609 66.783 42.0786 66.8177C41.5702 67.0318 41.0171 66.3712 40.7322 66.2453C40.6627 66.2146 40.6651 66.4684 40.6322 66.6512C40.5764 66.961 39.9681 66.785 39.1274 67.1744C38.4075 67.5079 36.7581 67.2507 35.9938 67.2425C35.9162 67.2417 35.8475 67.2407 35.7868 67.2398C35.8359 67.2144 35.8539 67.2009 35.8108 67.2009C35.7589 67.2009 35.5944 67.2009 35.4613 67.2093C35.3417 67.217 35.2498 67.231 35.7868 67.2398C35.682 67.2939 35.4355 67.4022 35.3389 67.5489C35.2996 67.6085 35.2972 67.6815 35.2558 67.7154C35.1689 67.7867 34.9986 67.7164 34.8657 67.6419C34.6702 67.5322 34.682 67.2517 34.6573 67.0939C34.6474 67.0307 34.5832 67.0184 34.5414 67.0346C34.2799 67.1358 34.1515 67.6317 33.9266 67.8897C33.8185 68.0137 33.6853 68.0649 33.5858 68.0734C33.1445 68.111 33.0535 67.1016 32.905 67.0269C32.7992 66.9736 32.5918 67.0014 32.4819 67.0261C32.339 67.0582 32.3057 67.2004 32.2393 67.2916C32.1806 67.3725 31.9417 67.4003 31.5849 67.3756C31.0739 67.3403 30.8767 66.9855 30.7358 66.9104C30.4696 66.7686 30.0321 67.3315 29.3243 67.4419C28.8061 67.5228 28.1344 67.499 27.7779 67.6491C27.4503 67.787 27.0714 67.7822 26.7969 67.758C26.5978 67.7405 26.489 67.5005 26.3482 67.4175C25.8528 67.1255 24.9444 67.2846 24.3967 67.226C23.4784 67.1278 22.6663 67.0348 22.5751 67.0346C22.5301 67.0345 22.5003 67.1001 22.4915 67.1503C22.4532 67.3706 22.8134 67.6317 23.0225 67.8732C23.202 68.0804 23.9402 68.4613 24.5006 68.6795C25.118 68.9198 25.5068 69.1115 25.7065 69.2032L25.7435 69.2202C26.0359 69.3546 26.3791 69.5124 26.5623 69.5607C26.8148 69.6273 27.1342 69.7268 27.4845 69.8265C27.7266 69.8954 28.1972 69.992 28.6061 70.1007C28.9981 70.2049 29.329 70.2423 29.6773 70.3001C30.1683 70.3817 30.5596 70.4083 30.9719 70.4826C31.9406 70.6572 32.6701 70.7409 32.8359 70.7491C33.1572 70.7651 33.3846 70.8406 34.2043 70.9316C35.2267 71.0451 35.6283 71.0899 35.8694 71.1313C36.076 71.1668 36.5726 71.2554 37.1722 71.3223C37.7864 71.3907 38.5012 71.4888 39.0327 71.4559C39.318 71.4382 39.5498 71.1577 39.8733 70.9336C40.5683 70.4523 41.6613 70.3261 41.8196 70.1929C41.9877 70.0515 42.1599 69.9601 42.4753 69.7033C42.8159 69.426 43.0075 69.3618 43.2072 69.196C43.5241 68.9329 43.9548 68.6637 44.2453 68.4237C44.8331 67.9378 45.664 67.6177 46.2063 67.3761C46.4483 67.2512 46.5814 67.1181 46.6478 67.0518L46.6478 67.0518C46.6801 67.0195 47.5974 65.8691 47.6889 65.7171Z" fill="#0E1A1E"/>
<path d="M47.6953 65.7051C47.6953 65.7215 47.6953 65.738 47.2511 65.7547C46.8068 65.7714 45.9183 65.7878 45.4195 65.7881C44.7025 65.7885 44.4395 65.7051 44.2231 65.7462C43.9535 65.7975 44.4873 66.1528 44.4878 66.4353C44.488 66.5043 44.4385 66.5517 44.4051 66.5936C44.2075 66.8413 43.5749 66.6694 43.2341 66.636C43.1005 66.6229 42.7622 66.5527 42.3135 66.6103C42.1517 66.631 42.1609 66.783 42.0786 66.8177C41.5702 67.0318 41.0171 66.3712 40.7322 66.2453C40.6627 66.2146 40.6651 66.4684 40.6322 66.6512C40.5764 66.961 39.9681 66.785 39.1274 67.1744C38.4075 67.5079 36.7581 67.2507 35.9938 67.2425C35.2294 67.2343 35.3281 67.2178 35.4613 67.2093C35.5944 67.2009 35.7589 67.2009 35.8108 67.2009C35.946 67.2009 35.4807 67.3335 35.3389 67.5489C35.2996 67.6085 35.2972 67.6815 35.2558 67.7154C35.1689 67.7867 34.9986 67.7164 34.8657 67.6419C34.6702 67.5322 34.682 67.2517 34.6573 67.0939C34.6474 67.0307 34.5832 67.0184 34.5414 67.0346C34.2799 67.1358 34.1515 67.6317 33.9266 67.8897C33.8185 68.0137 33.6853 68.0649 33.5858 68.0734C33.1445 68.111 33.0535 67.1016 32.905 67.0269C32.7992 66.9736 32.5918 67.0014 32.4819 67.0261C32.339 67.0582 32.3057 67.2004 32.2393 67.2916C32.1806 67.3725 31.9417 67.4003 31.5849 67.3756C31.0739 67.3403 30.8767 66.9855 30.7358 66.9104C30.4696 66.7686 30.0321 67.3315 29.3243 67.4419C28.8061 67.5228 28.1344 67.499 27.7779 67.6491C27.4503 67.787 27.0714 67.7822 26.7969 67.758C26.5978 67.7405 26.489 67.5005 26.3482 67.4175C25.8528 67.1255 24.9444 67.2846 24.3967 67.226C23.4784 67.1278 22.6663 67.0348 22.5751 67.0346C22.5301 67.0345 22.5003 67.1001 22.4915 67.1503C22.4532 67.3706 22.8134 67.6317 23.0225 67.8732C23.202 68.0804 23.9402 68.4613 24.5006 68.6795C25.118 68.9198 25.5068 69.1115 25.7065 69.2032C26.0064 69.341 26.3714 69.5104 26.5623 69.5607C26.8148 69.6273 27.1342 69.7268 27.4845 69.8265C27.7266 69.8954 28.1972 69.992 28.6061 70.1007C28.9981 70.2049 29.329 70.2423 29.6773 70.3001C30.1683 70.3817 30.5596 70.4083 30.9719 70.4826C31.9406 70.6572 32.6701 70.7409 32.8359 70.7491C33.1572 70.7651 33.3846 70.8406 34.2043 70.9316C35.2267 71.0451 35.6283 71.0899 35.8694 71.1313C36.076 71.1668 36.5726 71.2554 37.1722 71.3223C37.7864 71.3907 38.5012 71.4888 39.0327 71.4559C39.318 71.4382 39.5498 71.1577 39.8733 70.9336C40.5683 70.4523 41.6613 70.3261 41.8196 70.1929C41.9877 70.0515 42.1599 69.9601 42.4753 69.7033C42.8159 69.426 43.0075 69.3618 43.2072 69.196C43.5241 68.9329 43.9548 68.6637 44.2453 68.4237C44.8331 67.9378 45.664 67.6177 46.2063 67.3761C46.4483 67.2512 46.5815 67.1181 46.6478 67.0518C46.6812 67.0184 47.6614 65.7888 47.6953 65.7051Z" stroke="#0E1A1E" stroke-width="2" stroke-linecap="round"/>
<path d="M43.4465 60.5709C43.6315 60.6368 43.6839 60.239 43.7363 60.1866C43.6067 60.1896 43.4114 60.3313 43.2561 60.4706C43.0551 60.3371 42.8515 60.1456 42.3758 60.0941C42.2287 60.0782 42.1499 60.0548 42.0701 60.0806C41.6785 60.2073 41.5932 60.6098 41.4348 60.6364C41.2766 60.663 41.1168 60.5312 40.9977 60.3994C40.938 60.3333 40.9572 60.2152 40.9441 60.2005C40.8942 60.1445 40.8516 60.424 40.8119 60.4907C40.8027 60.5062 40.7984 60.374 40.7591 60.32C40.7198 60.266 40.6412 60.266 40.5745 60.2922C40.2869 60.4052 40.1902 60.7417 40.0715 60.8739C40.0145 60.9373 39.9266 60.9537 39.8599 60.9279C39.5447 60.8059 39.6344 60.2676 39.5284 59.9496C39.5018 59.8698 39.4756 59.7912 39.4228 59.7507C39.37 59.7102 39.2914 59.7102 39.2378 59.7626C38.9669 60.0275 38.8673 60.4232 38.6029 60.7282C38.4139 60.9462 38.0995 60.9012 37.9411 60.9012C37.6135 60.9012 37.2539 60.6106 36.8172 60.5177C36.6489 60.4819 36.3836 60.5042 36.301 60.5042C36.2185 60.5042 36.3233 60.5042 36.4035 60.5435C36.4837 60.5828 36.5361 60.6615 36.2879 60.7019C35.499 60.8307 34.9226 60.8211 34.9488 60.9664C35.0003 61.2521 35.4244 61.3237 35.5578 61.5226C35.6392 61.6439 35.0838 61.6159 34.7789 61.6421C34.3815 61.6762 35.7151 62.0383 36.099 62.1713C36.4212 62.2829 36.7473 62.3035 37.0653 62.3567C37.4159 62.4154 37.7001 62.6211 38.084 62.793C38.4283 62.9472 38.7594 62.9919 38.9313 62.9923C39.0032 62.9925 39.0246 62.8879 39.1036 62.8474C39.1826 62.8069 39.3136 62.8069 39.4204 62.8462C39.817 62.9922 39.8456 63.3619 39.8849 63.5073C39.9051 63.582 40.0028 63.6264 40.0957 63.5878C40.5802 63.387 40.8746 62.7307 41.1946 62.4107C41.4201 62.1852 42.0641 62.0923 42.452 61.9081C42.8119 61.7372 42.7041 61.168 42.8883 60.8627C42.9677 60.7702 43.0725 60.6392 43.2313 60.4931C43.2394 60.4857 43.2477 60.4782 43.2561 60.4706C43.3173 60.5113 43.3782 60.5466 43.4465 60.5709Z" fill="#0E1A1E"/>
<path d="M43.7363 60.1866C43.6839 60.239 43.6315 60.6368 43.4465 60.5709C43.1538 60.4667 42.9963 60.1612 42.3758 60.0941C42.2287 60.0782 42.1499 60.0548 42.0701 60.0806C41.6785 60.2073 41.5932 60.6098 41.4348 60.6364C41.2766 60.663 41.1168 60.5312 40.9977 60.3994C40.938 60.3333 40.9572 60.2152 40.9441 60.2005C40.8942 60.1445 40.8516 60.424 40.8119 60.4907C40.8027 60.5062 40.7984 60.374 40.7591 60.32C40.7198 60.266 40.6412 60.266 40.5745 60.2922C40.2869 60.4052 40.1902 60.7417 40.0715 60.8739C40.0145 60.9373 39.9266 60.9537 39.8599 60.9279C39.5447 60.8059 39.6344 60.2676 39.5284 59.9496C39.5018 59.8698 39.4756 59.7912 39.4228 59.7507C39.37 59.7102 39.2914 59.7102 39.2378 59.7626C38.9669 60.0275 38.8673 60.4232 38.6029 60.7282C38.4139 60.9462 38.0995 60.9012 37.9411 60.9012C37.6135 60.9012 37.2539 60.6106 36.8172 60.5177C36.6489 60.4819 36.3836 60.5042 36.301 60.5042C36.2185 60.5042 36.3233 60.5042 36.4035 60.5435C36.4837 60.5828 36.5361 60.6615 36.2879 60.7019C35.499 60.8307 34.9226 60.8211 34.9488 60.9664C35.0004 61.2521 35.4244 61.3237 35.5578 61.5226C35.6392 61.6439 35.0838 61.6159 34.7789 61.6421C34.3815 61.6762 35.7151 62.0383 36.099 62.1713C36.4212 62.2829 36.7473 62.3035 37.0653 62.3567C37.4159 62.4154 37.7001 62.6211 38.084 62.793C38.4283 62.9472 38.7594 62.9919 38.9313 62.9923C39.0032 62.9925 39.0246 62.8879 39.1036 62.8474C39.1826 62.8069 39.3136 62.8069 39.4204 62.8462C39.817 62.9922 39.8456 63.3619 39.8849 63.5073C39.9051 63.582 40.0028 63.6264 40.0957 63.5878C40.5802 63.387 40.8746 62.7307 41.1946 62.4107C41.4201 62.1852 42.0641 62.0923 42.452 61.9081C42.8119 61.7372 42.7041 61.168 42.8883 60.8627C42.9677 60.7702 43.0725 60.6392 43.2313 60.4931C43.3901 60.347 43.5997 60.1898 43.7363 60.1866Z" stroke="#0E1A1E" stroke-width="2" stroke-linecap="round"/>
<defs>
<linearGradient id="paint0_linear_10763_642" x1="29.2134" y1="9.41504" x2="29.2134" y2="41.2782" gradientUnits="userSpaceOnUse">
<stop stop-color="#181818"/>
<stop offset="1" stop-color="#9A735E"/>
</linearGradient>
</defs>
</svg>
