<svg xmlns="http://www.w3.org/2000/svg" width="207" height="417" viewBox="0 0 207 417" fill="none">
<path d="M116.5 340C97.454 340 80.3589 344.387 68.1299 351.325C55.8119 358.314 49 367.506 49 377C49 386.494 55.8119 395.686 68.1299 402.675C80.3589 409.613 97.454 414 116.5 414C135.546 414 152.641 409.613 164.87 402.675C177.188 395.686 184 386.494 184 377C184 367.506 177.188 358.314 164.87 351.325C152.641 344.387 135.546 340 116.5 340Z" fill="#232A40" stroke="black" stroke-width="6"/>
<path d="M89.3032 385.452C94.0124 385.452 98.7264 385.599 103.403 384.672C107.004 383.96 109.29 381.626 109.686 377.178C109.842 375.409 110.445 375.732 111.497 375.929C119.482 377.399 127.486 378.874 135.561 376.828C136.58 376.568 136.726 377.054 136.938 378.003C138.333 384.226 138.725 384.898 144.056 385.243C154.724 385.932 165.194 383.994 175.517 380.914C180.085 379.552 184.549 377.783 188.952 375.765C193.025 373.901 195.042 370.515 195.203 365.293C195.321 361.518 195.321 357.766 194.981 354.019C194.91 353.262 194.75 352.623 195.311 351.967C202.557 343.473 203.061 333.211 200.827 322.151C198.554 310.91 196.193 299.681 195.33 288.107C195.189 286.236 195.066 284.332 195.203 282.472C196.659 262.913 193.312 244.105 189.108 225.427C187.717 219.245 184.148 215.3 179.477 212.683C174.292 209.784 169.083 206.913 163.605 204.868C162.323 204.387 161.465 203.647 160.81 202.194C157.203 194.22 151.891 188.976 144.452 186.427C125.417 179.905 106.391 179.606 87.2479 185.512C81.1056 187.405 76.3256 191.547 72.8561 197.848C72.1113 199.205 71.1166 199.538 69.9193 199.804C62.4194 201.437 55.0043 203.353 48.0417 207.303C40.5088 211.576 35.6958 218.199 34.1261 228.219C31.9058 242.398 29.8787 256.566 31.0195 271.085C31.1515 272.769 31.2599 274.504 31.6842 276.098C34.7954 287.711 33.8621 299.534 33.1455 311.368C32.6129 320.173 31.2505 328.949 32.4243 337.822C32.957 341.851 33.8526 345.762 35.6864 349.221C36.6056 350.95 36.7706 352.612 36.5585 354.545C36.1248 358.478 36.2521 362.411 36.5679 366.373C36.9403 371.08 38.8636 374.132 42.4462 376.048C49.9933 380.077 58.0306 381.728 66.0774 383.355C73.7659 384.909 81.5487 385.056 89.3126 385.458L89.3032 385.452ZM157.807 207.066C158.061 207.524 158.424 207.948 158.556 208.45C159.857 213.378 154.29 225.461 150.114 226.829C148.728 228.682 146.941 229.807 145.093 230.824C143.571 231.836 141.836 231.474 140.224 231.892C139.201 232.927 137.975 233.051 136.716 233.04C134.869 233.328 135.241 232.056 135.637 230.807C137.15 226.026 139.323 221.686 141.84 217.589C143.999 214.074 145.621 210.236 146.701 206.094C148.317 199.889 146.248 194.74 141.308 192.491C139.846 191.824 138.362 191.18 136.844 190.739C126.892 187.857 116.786 186.806 106.613 188.004C101.277 188.631 95.9357 189.79 91.1039 193.056C88.8035 194.616 87.7334 196.859 87.5967 199.883C87.4223 203.675 88.3698 207.173 90.048 210.282C93.574 216.815 97.3217 223.144 102.333 228.276C103.37 229.338 104.774 230.344 105.156 232.401C103.794 232.531 102.502 232.78 101.258 231.994C99.9992 231.847 98.684 232.169 97.4961 231.373C94.6818 231.356 92.2023 229.598 89.4635 229.185C87.2196 227.863 85.0276 226.445 83.0902 224.517C78.7203 223.003 73.3228 213.774 73.5113 208.015C73.5585 206.608 73.3464 204.947 74.8454 204.218C75.2084 202.415 75.8542 200.827 77.1977 199.776C77.6691 197.752 79.0126 196.707 80.389 195.701C81.3036 193.943 82.8356 193.243 84.2875 192.401C90.3403 188.738 96.9493 187.314 103.539 186.947C116.22 186.241 128.971 185.958 141.289 190.767C144.065 191.852 147.054 192.395 149.421 194.729C149.633 194.831 149.972 194.785 149.84 195.271L149.802 195.17C151.561 195.368 152.249 197.069 153.102 198.538C154.342 199.787 155.285 201.307 155.959 203.065C156.822 204.229 157.807 205.314 157.816 207.055L157.807 207.066ZM159.018 369.272C158.495 368.718 158.636 368.068 158.825 367.413C158.882 367.023 158.943 366.633 158.999 366.243C158.5 362.36 158.589 362.185 162.502 361.965C171.218 361.467 179.453 358.308 187.731 355.437C190.776 354.381 190.715 354.126 190.856 357.918C191.474 359.054 191.507 360.179 190.833 361.304C190.79 362.513 190.748 363.717 190.706 364.926C190.875 367.831 189.678 369.374 187.415 370.244C179.029 373.46 170.549 376.076 161.766 377.252C159.645 377.534 158.844 376.947 159.268 374.409C159.259 372.827 159.254 371.244 159.244 369.662C159.23 369.481 159.16 369.351 159.023 369.272H159.018ZM40.4475 364.124C40.4711 362.767 40.4946 361.422 40.5182 360.077C40.5182 359.026 40.5088 357.969 40.5088 356.918C40.4805 353.942 41.5694 353.066 43.7756 354.29C46.8491 355.991 50.1347 356.856 53.4062 357.805C62.6833 360.501 71.9982 362.937 81.6005 362.942C83.9434 362.942 84.7495 363.83 84.2828 366.497L84.2262 369.572C84.2121 371.42 84.1979 373.268 84.1838 375.116C84.1555 376.138 84.2734 377.19 83.8067 378.139C83.8585 379.405 84.0612 380.326 82.2888 380.117C75.6185 379.343 68.9624 378.439 62.3628 377.088C55.8292 375.749 49.3522 373.985 43.2759 370.623C42.3991 370.137 41.2489 369.832 41.3573 368.176C40.8718 367.498 40.4805 366.763 40.4145 365.842C39.9714 365.26 39.7875 364.683 40.4428 364.124H40.4475ZM109.762 302.959C109.837 311.758 109.295 324.965 108.503 338.184C108.126 344.468 107.047 350.555 106.453 356.754C106.344 357.896 105.859 358.376 104.935 358.478C101.668 358.834 98.4106 359.456 95.1344 359.569C88.9543 359.783 82.7979 359.371 76.6131 358.698C65.3279 357.472 54.4056 354.635 43.6011 350.628C40.6738 349.543 39.4104 347.441 38.4299 344.57C36.8083 339.817 36.1955 334.748 36.3275 329.701C36.5113 322.495 36.9827 315.279 37.7275 308.124C38.9013 296.878 37.8312 285.92 35.5732 275.024C34.6493 270.554 34.2156 265.919 34.4607 261.37C34.9604 252.226 34.8756 242.992 36.6857 234C37.803 228.445 38.9814 223.008 42.0974 218.323C45.1143 213.78 49.5832 212.706 53.5382 210.474C58.0872 207.908 63.1595 207.264 67.9913 205.715C69.7355 205.156 70.1361 205.642 70.2493 207.716C70.551 213.198 72.182 217.996 75.3592 222.149C79.9176 228.106 85.5603 231.655 91.9477 233.695C95.3889 234.792 98.7783 236.306 102.399 236.391C107.773 236.521 107.787 236.51 108.253 243.043C108.272 243.325 108.272 243.608 108.277 243.89C108.414 252.899 108.725 261.901 109.276 270.887C109.842 280.082 109.724 289.299 109.752 302.953L109.762 302.959ZM197.461 330.611C197.508 341.722 193.774 350.803 184.799 352.391C183.955 352.538 183.116 352.849 182.305 353.188C171.322 357.817 159.848 358.885 148.369 359.523C141.383 359.913 141.072 359.037 140.803 350.719C140.346 336.528 141.68 322.377 140.992 308.164C140.511 298.149 140.224 288.124 139.535 278.109C138.659 265.405 137.461 252.769 135.698 240.2C135.396 238.052 135.698 236.747 137.895 236.956C138.96 237.052 140.063 236.685 141.138 236.431C151.226 234.029 159.485 226.563 161.564 213.169C161.969 210.564 162.851 210.236 164.732 211.214C168.253 213.039 171.779 214.865 175.531 215.95C179.345 217.052 182.235 219.471 184.422 223.579C186.091 226.716 186.713 230.118 187.472 233.509C189.758 243.755 190.838 254.266 191.667 264.795C191.917 267.943 192.615 271.13 192.143 274.323C191.257 280.347 190.682 286.355 191.252 292.498C191.813 298.562 192.761 304.53 193.906 310.458C195.335 317.844 197.183 325.123 197.465 330.617L197.461 330.611ZM124.144 372.533C120.552 372.94 116.998 371.815 113.373 371.109C110.959 370.64 110.945 369.329 111.317 367.39C112.364 361.999 112.873 356.466 112.925 351.024C113.024 340.066 114.047 329.175 114.245 318.251C114.419 308.604 115.108 298.98 114.613 289.282C114.127 279.731 114.391 270.124 114.037 260.539C113.773 253.362 113.627 246.185 112.642 239.081C112.369 237.114 112.958 236.459 114.641 236.464C118.624 236.464 122.631 237.041 126.577 235.747C129.999 234.622 129.919 234.735 130.527 238.968C132.474 252.441 133.52 266.044 134.647 279.624C135.665 291.944 135.953 304.338 136.075 316.714C136.146 323.807 135.972 330.916 135.599 337.997C135.429 341.202 136.278 344.186 136.226 347.362C136.132 353.346 135.543 359.388 136.806 365.327C137.513 368.65 136.523 370.594 133.798 371.437C130.673 372.403 127.496 372.799 124.139 372.533H124.144ZM118.44 230.768C117.464 230.768 116.192 230.937 114.957 230.734C112.637 230.35 110.238 229.869 108.503 227.801C105.35 224.043 102.323 220.132 99.2732 216.249C96.5156 212.734 94.3 208.756 92.6454 204.376C90.9719 199.945 91.6366 197.95 95.2475 195.769C97.0011 194.712 98.8584 194.017 100.772 193.531C107.56 191.813 114.391 191.756 121.288 192.361C127.411 192.898 133.374 194.22 139.168 196.577C142.137 197.786 143.193 200.115 142.661 203.794C142.529 204.698 142.152 205.557 141.822 206.405C139.356 212.712 135.693 218.171 132.955 224.263C131.489 227.518 129.377 228.959 126.624 229.818C124.017 230.632 121.396 230.988 118.44 230.773V230.768ZM93.7155 380.021C91.8393 380.021 89.9584 380.021 88.0823 380.021C87.3139 380.021 86.6021 379.908 86.7812 378.659C87.4176 374.279 87.0782 369.865 87.0405 365.474C87.0216 363.423 87.6344 362.79 89.223 363.039C92.5464 363.564 95.8698 363.163 99.1931 362.971C100.904 362.875 102.606 362.615 104.312 362.417C105.439 362.287 106.052 362.688 106.038 364.259C105.991 368.385 105.599 372.459 105.076 376.523C104.84 378.343 103.874 379.224 102.37 379.45C99.4948 379.874 96.6193 380.106 93.7202 380.021H93.7155ZM148.398 362.982C148.398 362.982 148.398 362.954 148.398 362.942C150.118 362.942 151.848 363.067 153.559 362.909C155.341 362.739 156.034 363.355 156.015 365.672C155.987 369.685 155.615 373.731 156.303 377.727C156.473 378.699 156.27 379.281 155.322 379.501C151.283 380.422 147.224 380.004 143.17 379.84C141.888 379.789 141.548 378.427 141.468 377.212C141.204 373.109 141.058 368.995 140.841 364.892C140.761 363.4 141.346 362.926 142.524 362.965C144.48 363.039 146.437 362.982 148.393 362.982H148.398Z" fill="#0A0A0A"/>
<path d="M109.762 302.959C109.734 289.299 109.851 280.088 109.286 270.893C108.734 261.907 108.423 252.904 108.286 243.896C108.286 243.614 108.286 243.331 108.263 243.048C107.796 236.521 107.782 236.532 102.408 236.397C98.7878 236.306 95.3984 234.797 91.9572 233.701C85.5698 231.661 79.9271 228.117 75.3687 222.155C72.1915 218.001 70.5604 213.203 70.2588 207.722C70.1456 205.648 69.7496 205.161 68.0008 205.721C63.1689 207.269 58.0967 207.914 53.5477 210.479C49.5879 212.712 45.1238 213.791 42.1069 218.329C38.9956 223.014 37.8171 228.451 36.6952 234.006C34.8803 242.998 34.9699 252.232 34.4702 261.376C34.2204 265.925 34.6541 270.559 35.5827 275.03C37.8407 285.925 38.9108 296.884 37.737 308.13C36.9922 315.284 36.5208 322.501 36.3369 329.707C36.2049 334.748 36.8225 339.817 38.4394 344.576C39.4199 347.446 40.6832 349.549 43.6106 350.634C54.4103 354.641 65.3374 357.478 76.6226 358.704C82.8027 359.377 88.9591 359.795 95.1438 359.574C98.4153 359.461 101.673 358.84 104.944 358.484C105.868 358.382 106.349 357.902 106.462 356.76C107.056 350.56 108.136 344.474 108.513 338.189C109.305 324.971 109.847 311.764 109.771 302.964L109.762 302.959ZM48.796 332.391C48.8856 331.594 49.5879 331.204 50.1489 330.786C58.9923 324.135 67.6095 317.087 75.8354 309.379C77.1034 308.192 77.7304 308.881 78.4658 310.034C79.2106 311.21 79.946 312.284 78.5224 313.544C76.5708 315.284 74.6757 317.115 72.7524 318.896C66.4074 324.767 59.7042 330.006 52.817 334.9C51.2803 335.991 48.862 334.539 48.8007 332.391H48.796ZM98.0618 245.213C98.1231 243.207 99.6881 241.551 101.423 241.749C103.275 241.963 104.232 243.325 104.317 245.478C104.402 247.586 102.941 249.169 101.126 249.084C99.4147 249.011 98.0005 247.219 98.0571 245.207L98.0618 245.213ZM101.178 307.395C102.964 307.378 104.289 308.972 104.214 311.17C104.133 313.408 103.026 314.674 101.23 314.736C99.3629 314.804 98.3494 313.419 98.2126 311.249C98.0759 309.091 99.4241 307.418 101.178 307.401V307.395ZM99.1272 277.85C99.1884 275.843 100.513 274.38 102.196 274.447C103.968 274.521 105.307 276.137 105.227 278.257C105.142 280.557 103.921 281.557 102.144 281.625C100.358 281.693 99.0565 279.997 99.1224 277.85H99.1272ZM100.64 345.367C98.783 345.401 97.4443 343.869 97.4254 341.88C97.4066 339.715 98.7265 338.088 100.522 338.161C102.427 338.24 103.417 339.608 103.417 341.772C103.417 343.982 102.304 345.175 100.636 345.367H100.64Z" fill="#232A40"/>
<path d="M197.461 330.611C197.178 325.118 195.33 317.839 193.902 310.452C192.756 304.524 191.809 298.556 191.248 292.492C190.682 286.349 191.248 280.342 192.139 274.317C192.61 271.124 191.913 267.937 191.663 264.789C190.833 254.26 189.754 243.749 187.467 233.503C186.713 230.112 186.086 226.71 184.417 223.573C182.23 219.465 179.34 217.046 175.527 215.944C171.774 214.859 168.244 213.034 164.727 211.208C162.846 210.236 161.965 210.558 161.559 213.164C159.48 226.563 151.222 234.023 141.134 236.425C140.064 236.679 138.956 237.052 137.89 236.95C135.694 236.747 135.392 238.052 135.694 240.194C137.457 252.757 138.654 265.399 139.531 278.104C140.219 288.118 140.507 298.143 140.987 308.158C141.671 322.371 140.342 336.522 140.799 350.713C141.068 359.031 141.379 359.907 148.365 359.518C159.848 358.879 171.317 357.816 182.301 353.182C183.112 352.843 183.946 352.532 184.794 352.385C193.775 350.797 197.508 341.716 197.456 330.605L197.461 330.611ZM190.607 336.42C190.121 336.013 189.57 335.646 189.117 335.16C182.489 327.994 175.876 320.817 169.257 313.64C168.409 312.718 167.574 311.899 168.904 310.537C169.922 309.497 170.634 308.169 172.161 309.847C178.841 317.217 185.591 324.496 192.327 331.792C192.95 332.47 193.492 333.233 193.068 334.216C192.587 335.324 191.658 335.912 190.612 336.42H190.607ZM144.683 312.114C144.745 310.797 145.14 309.667 146.423 309.701C147.728 309.74 148.03 311.006 148.082 312.289C148.139 313.685 147.639 314.787 146.371 314.725C145.131 314.668 144.735 313.498 144.683 312.108V312.114ZM145.909 344.813C145.989 343.507 146.357 342.456 147.545 342.563C148.775 342.676 149.166 343.858 149.213 345.146C149.26 346.468 148.671 347.316 147.554 347.277C146.253 347.231 145.994 346.028 145.914 344.818L145.909 344.813ZM142.548 279.059C142.51 277.996 142.614 276.832 143.825 276.612C145.155 276.374 145.626 277.465 145.753 278.804C145.871 280.082 145.475 281.059 144.316 281.257C143.033 281.477 142.75 280.37 142.543 279.059H142.548ZM139.87 246.897C139.851 245.868 140.106 244.823 141.346 244.851C142.633 244.885 142.996 246.06 143.052 247.326C143.104 248.451 142.675 249.389 141.643 249.44C140.37 249.502 139.932 248.468 139.866 246.891L139.87 246.897Z" fill="#232A40"/>
<path d="M124.144 372.533C127.501 372.804 130.678 372.403 133.803 371.436C136.528 370.594 137.518 368.65 136.811 365.327C135.547 359.388 136.141 353.346 136.231 347.361C136.278 344.185 135.434 341.201 135.604 337.997C135.981 330.916 136.151 323.807 136.08 316.714C135.957 304.337 135.67 291.944 134.652 279.624C133.525 266.044 132.478 252.435 130.532 238.968C129.919 234.735 130.004 234.622 126.581 235.747C122.631 237.041 118.624 236.47 114.645 236.464C112.963 236.464 112.373 237.12 112.647 239.081C113.632 246.185 113.778 253.362 114.042 260.539C114.396 270.124 114.127 279.731 114.617 289.282C115.112 298.98 114.424 308.604 114.25 318.251C114.052 329.181 113.029 340.066 112.93 351.024C112.878 356.466 112.369 361.999 111.322 367.39C110.945 369.328 110.964 370.64 113.377 371.109C117.007 371.815 120.562 372.94 124.149 372.533H124.144Z" fill="#E5E5E5"/>
<path d="M118.44 230.768C121.4 230.983 124.021 230.627 126.624 229.813C129.377 228.954 131.493 227.513 132.954 224.258C135.693 218.166 139.356 212.706 141.821 206.399C142.151 205.557 142.529 204.693 142.661 203.788C143.193 200.115 142.137 197.781 139.167 196.572C133.374 194.215 127.411 192.893 121.287 192.356C114.391 191.751 107.556 191.807 100.772 193.526C98.8582 194.012 97.0009 194.701 95.2473 195.763C91.6364 197.945 90.9764 199.94 92.6452 204.371C94.2998 208.756 96.5154 212.735 99.273 216.244C102.318 220.127 105.349 224.037 108.503 227.796C110.238 229.864 112.637 230.339 114.956 230.729C116.187 230.932 117.464 230.763 118.44 230.763V230.768Z" fill="#ECC3AE"/>
<path d="M101.252 231.994C102.497 232.78 103.788 232.531 105.151 232.401C104.769 230.344 103.364 229.338 102.327 228.276C97.3162 223.144 93.5686 216.82 90.0425 210.281C88.3643 207.173 87.4215 203.675 87.5912 199.883C87.7279 196.859 88.798 194.616 91.0984 193.056C95.9303 189.784 101.266 188.631 106.607 188.004C116.78 186.806 126.887 187.857 136.838 190.739C138.356 191.18 139.841 191.824 141.302 192.491C146.247 194.74 148.317 199.889 146.695 206.094C145.616 210.236 143.994 214.074 141.835 217.589C139.318 221.686 137.145 226.026 135.631 230.807C135.235 232.062 134.868 233.328 136.711 233.04C136.763 231.305 137.866 230.231 138.563 228.914C141.873 222.675 145.743 216.86 148.43 210.146C150.358 205.325 151.159 200.409 149.792 195.181L149.83 195.283C149.688 195.102 149.552 194.921 149.41 194.74C147.044 192.406 144.055 191.864 141.279 190.779C128.961 185.969 116.21 186.252 103.529 186.958C96.939 187.326 90.33 188.75 84.2773 192.412C81.9957 198.555 83.4759 204.11 86.1299 209.479C88.0909 213.441 90.429 217.074 92.8379 220.657C95.4919 224.602 98.7964 227.852 101.248 232.005L101.252 231.994Z" fill="#232A40"/>
<path d="M93.7161 380.021C96.6105 380.105 99.4908 379.874 102.366 379.45C103.875 379.224 104.841 378.348 105.072 376.522C105.595 372.459 105.987 368.379 106.034 364.259C106.053 362.694 105.44 362.292 104.308 362.417C102.602 362.609 100.9 362.869 99.1891 362.97C95.8704 363.157 92.5423 363.564 89.219 363.038C87.6304 362.79 87.0176 363.423 87.0364 365.474C87.0741 369.871 87.4088 374.279 86.7772 378.659C86.598 379.908 87.3051 380.021 88.0782 380.021C89.9544 380.021 91.8353 380.021 93.7114 380.021H93.7161ZM95.2152 372.126C95.3943 370.153 96.2334 368.803 98.0153 368.774C99.6935 368.752 100.641 369.961 100.712 371.928C100.782 373.985 100.005 375.403 98.1426 375.466C96.3324 375.522 95.4744 374.222 95.2152 372.126Z" fill="#232A40"/>
<path d="M148.397 362.982C146.441 362.982 144.484 363.033 142.528 362.965C141.35 362.92 140.765 363.4 140.845 364.892C141.062 369.001 141.208 373.11 141.472 377.212C141.548 378.428 141.887 379.789 143.174 379.84C147.228 380.004 151.287 380.422 155.327 379.501C156.274 379.287 156.477 378.699 156.307 377.727C155.614 373.731 155.991 369.685 156.02 365.672C156.034 363.355 155.345 362.745 153.564 362.909C151.852 363.067 150.122 362.943 148.402 362.943C148.402 362.954 148.402 362.971 148.402 362.982H148.397ZM146.238 375.161C146.408 374.24 146.643 373.268 147.624 373.268C148.67 373.268 149.128 374.212 149.165 375.319C149.203 376.353 148.769 377.173 147.808 377.201C146.709 377.241 146.379 376.303 146.238 375.155V375.161ZM145.903 367.153C146.002 365.921 146.45 365.107 147.501 365.209C148.529 365.311 148.925 366.221 148.901 367.345C148.883 368.532 148.34 369.284 147.313 369.193C146.28 369.103 145.922 368.221 145.903 367.153Z" fill="#232A40"/>
<path d="M40.5223 360.077C40.4987 361.422 40.4751 362.773 40.4516 364.118C50.3651 369.068 60.717 371.951 71.3517 373.471C75.6226 374.081 79.9076 374.567 84.1832 375.11C84.1973 373.262 84.2114 371.414 84.2256 369.566C69.1503 369.763 54.4992 367.136 40.5223 360.071V360.077Z" fill="#232A40"/>
<path d="M84.2828 366.491C84.7495 363.824 83.9387 362.937 81.6005 362.937C72.0029 362.931 62.6834 360.495 53.4062 357.8C50.1347 356.85 46.8538 355.986 43.7756 354.284C41.5694 353.064 40.4805 353.94 40.5088 356.912C40.8812 357.054 41.2725 357.144 41.6213 357.336C49.6681 361.801 58.1768 364.174 66.9354 365.457C72.6958 366.299 78.4987 366.113 84.2781 366.491H84.2828Z" fill="#232A40"/>
<path d="M84.1836 375.11C79.908 374.568 75.623 374.082 71.3521 373.471C60.7174 371.951 50.3655 369.069 40.452 364.118V364.124C40.4426 364.695 40.4332 365.271 40.4237 365.842C40.4944 366.763 40.8857 367.498 41.3665 368.176C42.6016 368.747 43.8178 369.391 45.0764 369.877C57.6675 374.782 70.6498 377.049 83.8065 378.134C84.2684 377.184 84.1553 376.139 84.1836 375.11Z" fill="#FDFDFD"/>
<path d="M84.2822 366.492C78.5029 366.113 72.7 366.3 66.9395 365.457C58.1809 364.18 49.6722 361.801 41.6254 357.336C41.2766 357.144 40.8853 357.054 40.5129 356.913C40.5129 357.964 40.5224 359.021 40.5224 360.072C54.4993 367.136 69.1504 369.764 84.2257 369.566C84.2445 368.538 84.2634 367.515 84.2822 366.486V366.492Z" fill="#FDFDFD"/>
<path d="M101.253 231.994C98.8017 227.84 95.5019 224.591 92.8432 220.646C90.4343 217.063 88.0962 213.435 86.1352 209.468C83.4812 204.099 81.9963 198.543 84.2826 192.4C82.8307 193.242 81.2939 193.943 80.3841 195.701C79.8939 200.747 81.0347 205.342 83.0098 209.733C86.7339 218.012 91.7778 225.009 97.4912 231.372C98.6791 232.169 99.9943 231.847 101.253 231.994Z" fill="#FDFDFD"/>
<path d="M97.4912 231.372C91.7779 225.009 86.7339 218.012 83.0099 209.733C81.0347 205.348 79.8939 200.747 80.3842 195.701C79.0077 196.707 77.6642 197.746 77.1928 199.775C77.2117 202.528 77.5982 205.206 78.4137 207.778C80.4455 214.215 83.7311 219.68 87.5919 224.698C88.4404 225.8 89.2606 226.942 90.0526 228.111C90.7455 229.129 89.9771 229.083 89.4539 229.185C92.1927 229.598 94.677 231.355 97.4865 231.372H97.4912Z" fill="#232A40"/>
<path d="M190.701 364.921C190.743 363.711 190.786 362.508 190.828 361.298C180.651 366 170.063 368.47 159.24 369.657C159.249 371.239 159.254 372.822 159.263 374.404C161.121 374.082 162.973 373.771 164.831 373.443C173.749 371.883 182.423 369.255 190.706 364.915L190.701 364.921Z" fill="#232A40"/>
<path d="M190.856 357.919C190.715 354.126 190.776 354.386 187.731 355.438C179.453 358.303 171.218 361.468 162.502 361.965C158.585 362.185 158.5 362.361 158.999 366.243C159.537 366.141 160.069 365.989 160.612 365.943C171.015 365.017 181.15 362.62 190.856 357.924V357.919Z" fill="#232A40"/>
<path d="M149.798 195.181C151.165 200.409 150.368 205.325 148.435 210.146C145.744 216.866 141.878 222.675 138.569 228.914C137.871 230.225 136.768 231.299 136.716 233.04C137.975 233.051 139.205 232.927 140.223 231.893C143 226.789 145.805 221.703 148.548 216.577C151.485 211.095 153.361 205.207 153.093 198.555C152.239 197.08 151.556 195.379 149.793 195.187L149.798 195.181Z" fill="#FDFDFD"/>
<path d="M190.701 364.92C182.418 369.261 173.745 371.883 164.826 373.448C162.973 373.77 161.116 374.087 159.259 374.409C158.839 376.952 159.641 377.534 161.757 377.252C170.539 376.076 179.02 373.46 187.406 370.244C189.669 369.374 190.871 367.831 190.696 364.926L190.701 364.92Z" fill="#FDFDFD"/>
<path d="M190.856 357.918C181.149 362.62 171.014 365.016 160.611 365.938C160.069 365.983 159.536 366.135 158.998 366.237C158.942 366.627 158.881 367.017 158.824 367.407C158.89 368.029 158.951 368.645 159.017 369.266C159.154 369.345 159.229 369.475 159.239 369.656C170.062 368.469 180.65 366 190.827 361.298C191.506 360.179 191.468 359.049 190.851 357.913L190.856 357.918Z" fill="#FDFDFD"/>
<path d="M153.093 198.55C153.361 205.201 151.485 211.09 148.548 216.572C145.805 221.698 143 226.784 140.223 231.887C141.836 231.475 143.57 231.836 145.093 230.819C143.085 229.932 144.989 229.061 145.258 228.677C150.528 221.155 154.926 213.136 155.949 203.071C155.275 201.307 154.332 199.793 153.093 198.544V198.55Z" fill="#232A40"/>
<path d="M89.4584 229.185C89.9817 229.083 90.7501 229.129 90.0571 228.111C89.2652 226.947 88.4449 225.806 87.5964 224.698C83.7357 219.68 80.45 214.215 78.4183 207.778C77.6028 205.201 77.2162 202.528 77.1974 199.775C75.8539 200.832 75.2081 202.42 74.8451 204.217C75.3966 207.247 76.1414 210.185 77.2634 213.005C78.885 217.08 81.0298 220.765 83.0899 224.517C85.0226 226.444 87.2193 227.863 89.4632 229.185H89.4584Z" fill="#FDFDFD"/>
<path d="M83.806 378.134C70.6493 377.048 57.6623 374.782 45.0759 369.877C43.8173 369.385 42.6011 368.747 41.366 368.176C41.2529 369.832 42.4078 370.137 43.2799 370.623C49.3515 373.985 55.8285 375.749 62.3668 377.088C68.9617 378.439 75.6225 379.349 82.2928 380.117C84.0653 380.321 83.8626 379.405 83.8107 378.139L83.806 378.134Z" fill="#232A40"/>
<path d="M155.949 203.076C154.926 213.141 150.528 221.155 145.258 228.683C144.989 229.067 143.09 229.937 145.093 230.824C146.941 229.807 148.728 228.683 150.113 226.829C153.39 220.641 156.821 214.537 157.807 207.066C157.797 205.325 156.812 204.24 155.949 203.076Z" fill="#FDFDFD"/>
<path d="M83.0898 224.518C81.0345 220.765 78.885 217.086 77.2634 213.006C76.1414 210.191 75.3966 207.247 74.8451 204.218C73.346 204.947 73.5582 206.608 73.511 208.016C73.3225 213.774 78.72 223.003 83.0898 224.518Z" fill="#232A40"/>
<path d="M157.806 207.066C156.821 214.537 153.389 220.635 150.113 226.829C154.289 225.461 159.857 213.379 158.556 208.451C158.424 207.948 158.061 207.524 157.806 207.066Z" fill="#232A40"/>
<path d="M40.419 365.842C40.4284 365.271 40.4378 364.694 40.4473 364.124C39.792 364.683 39.9759 365.259 40.419 365.842Z" fill="#232A40"/>
<path d="M159.018 369.272C158.952 368.65 158.89 368.034 158.824 367.413C158.636 368.068 158.494 368.718 159.018 369.272Z" fill="#232A40"/>
<path d="M149.416 194.735C149.557 194.916 149.694 195.097 149.836 195.277C149.968 194.791 149.628 194.837 149.416 194.735Z" fill="#FDFDFD"/>
<path d="M48.7964 332.391C48.8577 334.539 51.276 335.997 52.8128 334.9C59.6999 330.001 66.4032 324.767 72.7482 318.896C74.6715 317.115 76.5665 315.279 78.5181 313.544C79.937 312.278 79.2016 311.204 78.4615 310.034C77.7261 308.876 77.0992 308.186 75.8311 309.379C67.6052 317.087 58.9881 324.134 50.1446 330.786C49.5837 331.21 48.8813 331.594 48.7917 332.391H48.7964Z" fill="#FDFDFD"/>
<path d="M98.0619 245.213C98.0006 247.225 99.4195 249.011 101.131 249.09C102.941 249.169 104.402 247.587 104.322 245.484C104.237 243.325 103.28 241.969 101.428 241.754C99.6929 241.557 98.1232 243.212 98.0666 245.219L98.0619 245.213Z" fill="#FDFDFD"/>
<path d="M101.178 307.395C99.4192 307.412 98.0758 309.085 98.2125 311.244C98.3492 313.419 99.3674 314.804 101.229 314.73C103.025 314.663 104.133 313.397 104.213 311.164C104.293 308.966 102.964 307.372 101.178 307.389V307.395Z" fill="#FDFDFD"/>
<path d="M99.1273 277.85C99.0613 279.997 100.362 281.693 102.149 281.625C103.926 281.557 105.142 280.557 105.232 278.257C105.312 276.137 103.973 274.521 102.201 274.448C100.513 274.38 99.1933 275.843 99.132 277.85H99.1273Z" fill="#FDFDFD"/>
<path d="M100.641 345.367C102.309 345.174 103.422 343.982 103.422 341.772C103.422 339.608 102.427 338.24 100.527 338.161C98.7268 338.088 97.4068 339.715 97.4304 341.88C97.4493 343.869 98.788 345.401 100.645 345.367H100.641Z" fill="#FDFDFD"/>
<path d="M190.606 336.421C191.653 335.912 192.581 335.33 193.062 334.216C193.491 333.233 192.949 332.47 192.322 331.792C185.586 324.496 178.836 317.217 172.156 309.848C170.633 308.164 169.921 309.492 168.898 310.537C167.569 311.899 168.403 312.719 169.252 313.64C175.87 320.811 182.484 327.994 189.112 335.16C189.565 335.652 190.116 336.014 190.602 336.421H190.606Z" fill="#FDFDFD"/>
<path d="M144.683 312.114C144.735 313.504 145.131 314.668 146.37 314.731C147.639 314.787 148.138 313.691 148.082 312.295C148.03 311.012 147.728 309.746 146.422 309.707C145.135 309.667 144.739 310.803 144.683 312.12V312.114Z" fill="#FDFDFD"/>
<path d="M145.91 344.813C145.99 346.028 146.249 347.232 147.55 347.271C148.667 347.311 149.256 346.463 149.209 345.141C149.162 343.852 148.771 342.671 147.541 342.558C146.357 342.45 145.99 343.502 145.905 344.807L145.91 344.813Z" fill="#FDFDFD"/>
<path d="M142.547 279.059C142.75 280.37 143.033 281.478 144.32 281.258C145.475 281.06 145.875 280.082 145.758 278.805C145.635 277.466 145.164 276.375 143.83 276.612C142.613 276.827 142.514 277.997 142.552 279.059H142.547Z" fill="#FDFDFD"/>
<path d="M139.87 246.897C139.936 248.468 140.374 249.508 141.647 249.446C142.679 249.395 143.108 248.457 143.056 247.332C142.995 246.066 142.637 244.891 141.35 244.857C140.11 244.823 139.856 245.874 139.874 246.903L139.87 246.897Z" fill="#FDFDFD"/>
<path d="M95.2149 372.126C95.4695 374.223 96.3321 375.523 98.1423 375.466C100.004 375.41 100.782 373.985 100.711 371.928C100.645 369.962 99.6932 368.747 98.015 368.775C96.2331 368.803 95.394 370.154 95.2149 372.126Z" fill="#FDFDFD"/>
<path d="M146.239 375.161C146.38 376.308 146.715 377.246 147.809 377.207C148.766 377.173 149.199 376.359 149.166 375.325C149.129 374.212 148.671 373.273 147.625 373.273C146.649 373.273 146.409 374.245 146.239 375.167V375.161Z" fill="#FDFDFD"/>
<path d="M145.904 367.153C145.922 368.221 146.281 369.108 147.313 369.193C148.341 369.278 148.883 368.532 148.902 367.345C148.921 366.22 148.529 365.31 147.502 365.209C146.45 365.107 146.003 365.921 145.904 367.153Z" fill="#FDFDFD"/>
<path d="M182.173 119.868C183.909 118.677 184.722 116.857 185.505 115.009C186.939 111.621 188.872 108.443 189.794 104.836C190.025 103.933 190.177 103.05 190.099 102.108C190.025 101.2 190.288 100.45 191.198 99.9163C192.861 98.944 193.533 96.8978 192.535 95.3227C191.762 94.1009 192.267 93.2325 192.667 92.1725C194.937 86.1561 198.221 80.5001 199.198 74.0219C199.778 70.1765 200.258 66.3312 199.767 62.4235C199.561 60.7953 199.194 59.2548 198.355 57.8391C198.046 57.3148 197.771 56.7697 197.404 56.0931C200.122 55.8436 202.21 54.578 204.011 52.7535C205.097 51.6518 205.79 50.3354 206.166 48.8642C206.757 46.5501 205.307 44.4969 202.824 44.1482C194.635 42.998 187.542 39.2012 180.634 34.9678C178.311 33.5452 176.711 31.4089 175.32 29.1294C173.995 26.9561 172.315 25.1754 170.244 23.6927C167.523 21.7458 164.9 19.6672 162.066 17.882C159.41 16.2099 156.449 15.4754 153.377 15.1175C152.915 15.0643 152.569 14.8865 152.262 14.6001C148.239 10.8518 143.472 8.17503 138.908 5.1865C134.957 2.59984 130.548 1.61598 126.058 0.736049C122.409 0.0200963 118.709 -0.104618 115.023 0.0709059C110.817 0.269525 107.261 2.34579 103.766 4.46824C100.81 6.26505 97.9072 8.14732 95.2027 10.3137C94.9487 10.5169 94.7432 10.667 94.3852 10.51C91.5375 9.26744 88.4335 9.43603 85.4565 8.90022C79.207 7.77548 72.9228 7.64153 66.6039 8.06186C64.0727 8.23046 61.9733 9.66005 59.613 10.3044C55.9662 11.2975 53.6498 13.808 51.876 16.9466C51.5365 17.5494 51.2063 18.0506 50.4649 18.1429C50.2802 18.166 50.0908 18.2561 49.9337 18.36C46.1299 20.889 41.9405 22.7735 38.3561 25.6928C35.4322 28.0739 32.0903 29.8638 28.3166 30.6305C27.5313 30.7899 26.7068 30.7553 25.9216 30.9169C23.4435 31.4273 22.2841 33.5498 23.2287 35.8801C23.4227 36.3605 23.388 36.5891 23.0185 36.9448C20.2633 39.5753 17.6142 42.2867 15.6927 45.6401C14.6742 47.4185 14.053 49.3608 13.1107 51.1692C9.83345 57.4649 5.67399 63.1925 1.68775 69.031C1.14501 69.8255 0.623054 70.6338 0.295101 71.5461C-0.5779 73.978 0.535292 76.2783 2.99494 77.022C3.56539 77.1952 3.63468 77.3615 3.55846 77.9481C2.85637 83.4124 4.00882 88.5812 6.29295 93.512C7.7849 96.7315 10.5286 98.7177 13.561 100.344C14.8128 101.016 16.0692 101.681 17.3256 102.348C17.8036 102.602 18.3186 102.905 18.8498 102.801C20.0046 102.577 20.3071 103.212 20.6305 104.147C23.1571 111.448 26.2588 118.517 29.3235 125.601C29.4736 125.947 29.5799 126.33 29.9148 126.568C30.5037 127.755 31.0857 128.947 31.6816 130.13C32.0257 130.818 32.4044 131.16 33.1065 130.418C33.3929 130.116 33.7948 129.744 34.2936 129.813C35.8133 130.026 37.3999 129.799 38.848 130.483C42.2823 130.499 45.6357 130.982 48.973 131.85C53.7722 133.1 58.3589 134.744 62.3959 137.707C62.8555 138.044 63.3844 138.296 63.9041 138.534C65.4792 139.257 67.0773 138.709 68.6663 138.578C69.5878 138.502 70.1606 138.132 70.1028 137.07C70.0636 136.344 70.1698 135.612 70.2067 134.883C70.4169 130.845 69.537 126.929 68.8372 122.998C67.8926 117.681 68.2136 112.33 68.4954 107.004C68.6109 104.824 68.6825 102.517 69.6109 100.447C71.4516 96.3435 73.7634 92.4819 75.9043 88.4564C76.5718 89.4865 76.9275 90.4819 76.7866 91.669C76.6318 92.9785 76.2692 94.2233 75.902 95.4774C75.4286 97.0987 74.5648 98.5883 74.3131 100.281C73.9089 102.99 75.9783 105.187 78.6365 104.649C81.2624 104.117 83.7013 103.069 85.5281 100.965C87.1009 99.1542 88.3943 97.1587 89.4105 94.9878C91.3759 90.7914 91.9787 86.3294 92.0041 81.7519C92.0179 79.4077 91.9348 77.0589 92.138 74.7171C92.4267 71.3844 94.3944 69.2851 97.3229 68.1557C99.0827 67.4767 101.099 67.6222 102.91 68.0887C107.372 69.2343 111.737 70.7262 115.963 72.5692C119.166 73.9642 122.289 75.5439 125.464 77.0035C130.22 79.1883 133.049 78.828 136.825 74.4261C138.301 72.7055 139.675 70.8971 141.118 69.1465C144.22 65.3843 148.126 63.6314 153.036 64.4397C154.354 64.6568 155.618 65.0494 156.414 66.2065C158.454 69.1696 160.105 72.3429 160.976 75.8418C161.754 78.9735 162.227 82.2207 163.814 85.0614C167.094 90.9322 170.918 96.3827 176.713 100.122C176.835 100.2 176.911 100.35 177.008 100.468C178.47 100.741 179.923 101.087 181.431 100.953C181.72 100.928 181.891 101.013 181.884 101.415C181.817 105.681 180.574 109.579 178.311 113.173C178.299 113.404 178.288 113.635 178.276 113.866C179.794 115.074 180.385 116.734 180.35 118.58C180.33 119.67 180.69 120.032 181.711 119.873C181.861 119.85 182.015 119.868 182.168 119.868H182.173ZM83.9207 88.916C82.7659 85.7381 81.4218 83.0614 79.8536 80.514C78.8374 78.8627 78.9552 77.0936 79.558 75.5762C80.4403 73.3545 81.1216 71.1004 81.6897 68.7954C82.013 67.4883 81.2093 65.6499 79.9968 65.0748C78.1631 64.2041 75.6341 64.3819 74.6595 67.479C74.2461 68.7931 74.0221 70.195 73.4239 71.4144C72.313 73.6755 71.7033 76.0081 71.8858 78.5093C71.9851 79.8996 72.1283 81.2138 70.7772 82.1653C70.5047 82.357 70.4031 82.8258 70.276 83.1861C69.3984 85.7058 68.0173 87.9714 66.7171 90.274C64.1096 94.9 61.807 99.5791 61.419 105.053C61.1465 108.884 60.9964 112.706 61.0218 116.54C61.0379 119.259 61.3451 121.949 61.8601 124.624C62.255 126.684 62.6431 128.758 62.8301 130.843C63.0033 132.783 62.904 132.751 61.1141 131.931C58.0101 130.506 54.8138 129.395 51.4211 128.811C49.4857 128.478 47.5411 128.508 45.6103 128.252C43.4393 127.965 41.3562 127.31 39.2198 126.901C38.4254 126.748 37.811 126.564 37.4138 125.781C34.998 121.018 33.0142 116.069 30.9772 111.141C29.3951 107.311 27.9286 103.443 26.5914 99.5214C25.6837 96.8631 23.8569 94.6321 23.0139 91.93C22.7714 91.154 22.1732 90.5766 21.448 90.1586C20.5566 89.6481 19.6605 89.1424 18.7921 88.5904C17.0161 87.4587 14.21 87.8421 13.3162 89.8768C13.2261 90.0823 13.113 90.3202 12.8197 90.2648C12.501 90.2047 12.4501 89.8999 12.3393 89.6643C11.4871 87.8421 11.136 85.8559 10.7665 83.9205C10.5032 82.5348 10.2007 81.0475 10.524 79.5855C10.9259 77.7703 11.9628 76.3337 13.1846 74.9642C15.7897 72.0449 15.1407 69.6592 12.6164 68.1072C11.4155 67.3682 11.3531 67.4536 12.1799 66.3358C15.3209 62.1001 17.8683 57.5042 20.2794 52.8343C21.8314 49.8296 22.716 46.5062 25.1364 43.9172C26.2426 42.7348 27.2034 41.5223 28.6838 40.7578C30.1688 39.991 31.61 39.1111 32.9818 38.1504C34.5454 37.0556 35.9865 35.7854 37.52 34.6468C39.661 33.0579 42.1345 32.0324 44.2431 30.3188C47.2385 27.8845 50.749 26.1547 54.0701 24.1731C55.6983 23.2008 57.1879 22.113 58.151 20.3924C58.6891 19.4317 59.2688 18.3115 60.2504 17.845C62.419 16.8127 64.65 15.8219 67.0011 15.3092C69.8349 14.6902 72.7449 15.1359 75.6203 15.0482C77.3455 14.9951 79.0476 15.2514 80.759 15.4685C82.6897 15.7133 84.6066 16.0482 86.549 16.2353C88.7084 16.4431 90.8793 16.6879 92.9279 17.5471C93.8494 17.9328 94.6184 18.5864 95.6092 18.8497C98.1358 19.5194 100.565 18.0182 100.503 15.808C100.485 15.1798 100.981 14.8934 101.42 14.577C103.914 12.7895 106.48 11.1081 109.145 9.59308C111.108 8.47758 113.134 7.3436 115.443 7.21658C118.776 7.03412 122.118 7.18886 125.388 7.90943C127.88 8.4591 130.545 8.6046 132.756 9.97415C137.303 12.7941 142.204 15.1013 146.142 18.8289C147.093 19.7296 148.345 20.2908 149.098 21.3624C150.109 22.7989 151.555 23.2054 153.042 22.8151C154.821 22.3463 156.292 22.9444 157.712 23.6881C160.195 24.9861 162.294 26.8799 164.616 28.4342C166.93 29.9839 168.701 31.9562 170.175 34.2958C171.5 36.3997 173.085 38.2889 175.131 39.8086C179.136 42.7833 183.544 44.9935 188.046 47.0674C188.854 47.4393 189.787 47.6079 190.531 48.2984C190.337 48.4416 190.23 48.5548 190.101 48.6125C187.085 49.9566 186.909 52.8135 188.473 55.1231C189.053 55.9799 189.678 56.8206 190.133 57.7444C190.96 59.4257 192.261 60.9061 192.586 62.7976C193.201 66.3589 192.554 69.8855 192.037 73.396C191.628 76.1813 190.521 78.7749 189.45 81.3593C188.697 83.1769 187.833 84.946 187.02 86.7312C186.662 86.5765 186.667 86.3663 186.586 86.1977C185.466 83.8097 185.588 81.1999 185.216 78.6756C184.951 76.8834 183.586 75.7679 181.782 75.7633C179.965 75.761 178.63 76.8788 178.288 78.6271C178.124 79.4631 178.235 80.2784 178.244 81.1075C178.288 85.14 179.754 88.7359 181.367 92.311C181.563 92.7429 182.136 93.2672 181.782 93.6252C181.41 94.0039 180.671 93.8422 180.124 93.706C179.491 93.5489 178.965 93.1586 178.473 92.6967C177.154 91.4542 176.096 89.99 174.9 88.6458C171.874 85.2508 169.366 81.5556 168.593 76.9735C167.78 72.1604 165.745 67.8624 163.371 63.6706C161.592 60.5297 159.04 58.4903 155.509 57.6543C153.137 57.0931 150.786 56.9961 148.345 57.2478C143.082 57.7929 139.114 60.5135 135.772 64.3404C134.315 66.0102 133.081 67.8739 131.559 69.4952C129.938 71.2251 129.95 71.1234 127.769 70.1442C122.109 67.6014 116.582 64.7538 110.617 62.8969C106.797 61.7075 103.057 60.6128 98.9534 60.6798C93.951 60.7606 90.4844 63.3288 87.5513 66.8624C85.4404 69.4029 84.9923 72.6408 84.8145 75.8303C84.6713 78.4008 84.8491 80.9874 84.7614 83.5626C84.7036 85.2531 84.5189 86.9506 83.9092 88.9068L83.9207 88.916Z" fill="#0C181C"/>
<path d="M182.173 119.868C182.02 119.868 181.865 119.85 181.715 119.873C180.694 120.03 180.334 119.67 180.355 118.579C180.39 116.732 179.798 115.071 178.281 113.866C178.228 115.316 178.212 116.766 178.115 118.215C177.863 122.044 177.073 125.824 177.122 129.681C177.168 133.25 177.304 136.813 176.965 140.384C176.38 146.509 176.676 152.675 176.267 158.809C176.02 162.523 176.235 166.255 175.757 169.957C174.99 175.888 173.329 181.5 170.117 186.616C166.027 193.126 160.26 197.748 153.661 201.45C151.44 202.697 149.183 203.905 146.601 204.274C145.841 204.861 144.991 205.164 144.021 205.067C143.601 205.547 143.054 205.609 142.467 205.533C141.536 206.517 140.513 206.852 139.312 205.995C138.469 206.395 137.539 206.309 136.652 206.471C135.356 207.348 134.049 208.004 132.64 206.679C131.539 207.251 130.354 207.027 129.194 207.037C129.014 208.369 128.21 209.184 127.04 209.226C125.767 209.27 124.977 208.547 124.709 207.099C124.268 207.286 123.799 207.247 123.342 207.226C119.358 207.03 115.409 206.679 111.466 205.942C105.344 204.799 99.4269 203.071 93.7085 200.648C84.0893 196.574 76.2485 190.329 70.5001 181.539C68.3776 178.292 68.373 177.791 70.7633 174.752C71.634 173.645 71.4793 172.174 70.3661 170.992C69.3892 169.955 68.4608 169.862 67.2113 170.842C62.9295 174.2 58.2781 174.167 53.5066 172.253C48.7351 170.338 44.8782 167.13 41.5687 163.246C36.2244 156.973 32.6562 149.726 30.3882 141.878C28.7577 136.233 30.8525 132.411 36.8341 130.922C37.4993 130.755 38.176 130.631 38.8457 130.487C37.3953 129.804 35.811 130.032 34.2913 129.818C33.7948 129.748 33.3906 130.12 33.1042 130.423C32.4045 131.164 32.0257 130.822 31.6793 130.134C31.0834 128.949 30.5014 127.76 29.9125 126.573C30.0326 127 29.7947 127.196 29.4483 127.367C25.0024 129.564 23.8176 133.418 24.2149 137.97C24.626 142.666 26.3489 147 28.2612 151.248C31.8178 159.151 36.7995 166.1 42.7696 172.341C45.9544 175.669 49.7051 178.17 54.2041 179.44C56.2757 180.024 58.4005 179.93 60.5068 180.015C63.3036 180.128 65.2644 181.408 66.6755 183.798C71.4978 191.962 78.103 198.339 86.3434 202.995C92.6068 206.533 99.3553 208.84 106.284 210.697C114.905 213.009 123.642 214.016 132.555 213.344C142.077 212.626 151.193 210.464 159.211 205.057C167.061 199.762 173.055 192.879 176.459 183.865C178.775 177.733 179.586 171.371 179.939 164.904C180.239 159.412 180.54 153.92 180.766 148.423C180.942 144.121 180.988 139.811 181.119 135.506C181.27 130.587 181.641 125.681 182.168 120.787C182.2 120.485 182.173 120.175 182.173 119.87V119.868Z" fill="#272224"/>
<path d="M129.197 207.037C130.356 207.028 131.541 207.252 132.643 206.679C131.684 205.568 131.666 204.362 132.594 203.406C133.638 202.332 135.469 202.129 136.486 202.974C137.506 203.824 137.571 205.168 136.654 206.471C137.541 206.307 138.472 206.395 139.315 205.995C138.331 205.074 138.1 204.122 138.62 203.141C139.123 202.187 140.079 201.716 141.255 202.048C141.908 202.233 142.01 201.933 142.243 201.501C142.992 200.115 144.516 199.776 145.895 200.644C147.255 201.501 147.532 202.914 146.606 204.275C149.188 203.905 151.444 202.697 153.666 201.45C160.262 197.748 166.031 193.124 170.121 186.616C173.334 181.503 174.997 175.888 175.761 169.957C176.239 166.255 176.025 162.521 176.272 158.809C176.678 152.673 176.383 146.509 176.969 140.384C177.311 136.813 177.175 133.25 177.126 129.682C177.075 125.825 177.868 122.044 178.119 118.215C178.214 116.769 178.233 115.316 178.286 113.866C178.297 113.635 178.309 113.404 178.32 113.173C178.182 112.732 178.14 112.286 178.117 111.822C177.928 108.021 177.9 104.203 177.018 100.468C176.921 100.351 176.845 100.203 176.722 100.122C170.928 96.3829 167.103 90.9301 163.823 85.0616C162.237 82.2232 161.763 78.9737 160.985 75.842C160.114 72.343 158.463 69.1674 156.424 66.2066C155.627 65.0496 154.364 64.6569 153.045 64.4398C148.135 63.6338 144.229 65.3844 141.128 69.1467C139.684 70.8973 138.31 72.7056 136.834 74.4262C133.056 78.8282 130.229 79.1908 125.474 77.0037C122.298 75.544 119.176 73.9643 115.972 72.5694C111.746 70.7287 107.379 69.2367 102.919 68.0889C101.111 67.6247 99.0921 67.4792 97.3322 68.1559C94.4037 69.2829 92.436 71.3823 92.1473 74.7172C91.9441 77.0614 92.0272 79.4079 92.0134 81.752C91.988 86.3318 91.3852 90.7938 89.4198 94.9879C88.4036 97.1589 87.1079 99.1543 85.5374 100.965C83.7106 103.069 81.2717 104.117 78.6458 104.649C75.9852 105.187 73.9182 102.99 74.3224 100.281C74.5741 98.5885 75.4402 97.0988 75.9113 95.4776C76.2763 94.2235 76.6412 92.9786 76.7959 91.6691C76.9368 90.4821 76.5811 89.4843 75.9137 88.4566C73.7727 92.4821 71.4609 96.3436 69.6202 100.448C68.6918 102.517 68.6202 104.824 68.5047 107.004C68.2229 112.33 67.9019 117.681 68.8465 122.998C69.5463 126.929 70.4262 130.846 70.216 134.883C70.1791 135.612 70.0729 136.345 70.1121 137.07C70.1699 138.132 69.5971 138.502 68.6756 138.578C67.0866 138.71 65.4908 139.257 63.9134 138.534C63.3937 138.296 62.8625 138.042 62.4052 137.707C58.3682 134.744 53.7792 133.1 48.9823 131.85C45.6473 130.982 42.2916 130.497 38.8573 130.483C38.1876 130.626 37.5109 130.753 36.8457 130.917C30.864 132.407 28.767 136.231 30.3998 141.874C32.6678 149.721 36.236 156.969 41.5802 163.241C44.8898 167.126 48.7467 170.334 53.5182 172.248C58.292 174.163 62.9411 174.195 67.2229 170.837C68.4724 169.858 69.4008 169.95 70.3777 170.987C71.4886 172.17 71.6457 173.641 70.775 174.747C68.3846 177.787 68.3892 178.288 70.5117 181.535C76.2601 190.325 84.1009 196.57 93.7201 200.644C99.4408 203.067 105.358 204.794 111.478 205.938C115.42 206.674 119.372 207.025 123.354 207.222C123.811 207.245 124.28 207.284 124.721 207.095C124.811 205.619 125.628 204.757 126.92 204.716C127.952 204.681 129.296 205.582 129.206 207.032L129.197 207.037ZM87.1056 124.742C87.1056 121.797 89.1842 120.009 92.0803 120.471C92.4591 120.531 92.8379 120.603 93.2097 120.691C99.8958 122.266 106.584 123.834 113.268 125.425C117.076 126.331 120.875 127.273 124.677 128.204C126.432 128.633 127.428 129.829 127.862 131.506C128.264 133.054 127.876 134.368 126.589 135.416C125.536 136.275 125.026 137.483 124.735 138.786C124.227 141.07 123.751 143.366 122.915 145.56C121.261 149.899 116.286 151.031 112.891 147.839C111.436 146.47 110.466 144.772 109.748 142.929C108.947 140.876 108.543 138.723 108.344 136.539C108.088 133.723 107.586 133.127 104.85 132.518C104.586 132.46 104.325 132.4 104.064 132.338C99.5516 131.245 95.0319 130.183 90.5283 129.047C88.228 128.467 87.1056 126.973 87.1056 124.742ZM142.052 135.85C139.823 135.894 138.513 134.991 137.883 133.194C136.938 130.506 137.984 128.358 140.726 127.501C144.68 126.266 148.645 125.065 152.615 123.875C157.502 122.411 162.373 120.88 167.302 119.566C170.459 118.725 173.078 121.012 172.715 124.635C172.641 125.384 172.304 126.199 171.512 126.638C170.214 127.361 169.703 128.552 169.535 129.961C169.237 132.442 168.964 134.927 168.586 137.393C168.105 140.534 167.239 143.56 165.235 146.112C163.435 148.4 160.355 148.329 158.652 145.971C158.207 145.354 157.86 144.654 157.558 143.952C156.216 140.869 155.862 137.592 155.701 134.275C155.625 132.726 155.006 132.284 153.516 132.712C151.488 133.294 149.484 133.959 147.451 134.525C145.569 135.051 143.707 135.675 142.054 135.843L142.052 135.85ZM113.882 186.475C111.961 186.475 110.035 186.524 108.115 186.459C106.598 186.408 105.614 185.452 105.559 184.159C105.501 182.842 106.39 181.875 107.894 181.634C108.196 181.586 108.506 181.574 108.813 181.563C111.619 181.473 114.434 181.489 117.231 181.279C121.929 180.925 126.698 180.798 130.783 177.893C131.594 177.316 132.566 177.461 133.377 178.087C134.155 178.69 134.389 179.521 134.197 180.459C134.026 181.293 133.474 181.891 132.83 182.401C131.446 183.498 129.823 184.071 128.148 184.549C123.485 185.886 118.693 186.177 113.885 186.473L113.882 186.475ZM42.3355 138.947C42.2893 137.578 42.8828 137.003 44.3702 137.211C49.2386 137.887 53.9408 139.084 58.1534 141.774C60.2366 143.105 62.3036 144.446 63.59 146.647C64.4376 148.1 64.3914 149.315 63.5369 150.008C62.7309 150.661 61.8071 150.5 60.4329 149.407C58.2527 147.675 55.8739 146.289 53.3265 145.174C51.1948 144.239 48.9361 143.804 46.6704 143.377C44.2293 142.918 42.4071 141.047 42.3378 138.95L42.3355 138.947ZM158.699 183.734C158.699 183.708 158.699 183.685 158.699 183.66C155.089 183.542 151.477 183.438 147.869 183.3C146.989 183.265 146.093 183.237 145.257 182.918C144.218 182.524 143.627 181.768 143.673 180.63C143.719 179.496 144.361 178.805 145.426 178.466C146.068 178.262 146.717 178.313 147.37 178.341C152.708 178.577 158.043 178.861 163.389 178.808C163.923 178.803 164.47 178.844 164.99 178.96C166.147 179.221 166.884 180.145 166.895 181.253C166.907 182.353 166.163 183.32 165.029 183.586C164.549 183.699 164.041 183.725 163.542 183.729C161.927 183.745 160.313 183.736 158.699 183.736V183.734Z" fill="#ECC3AE"/>
<path d="M83.9204 88.9165C84.5302 86.9603 84.7172 85.2628 84.7727 83.5723C84.8604 80.9972 84.6803 78.4105 84.8258 75.84C85.0036 72.6482 85.4517 69.4103 87.5626 66.8721C90.498 63.3385 93.9646 60.7726 98.9647 60.6895C103.069 60.6225 106.81 61.7172 110.628 62.9066C116.591 64.7635 122.118 67.6111 127.781 70.1539C129.961 71.1332 129.947 71.2325 131.571 69.505C133.09 67.8837 134.326 66.0199 135.783 64.3501C139.125 60.5232 143.093 57.8026 148.356 57.2575C150.797 57.0058 153.148 57.1028 155.52 57.664C159.052 58.4978 161.604 60.5394 163.382 63.6803C165.754 67.8721 167.789 72.1701 168.604 76.9832C169.377 81.5653 171.886 85.2605 174.911 88.6555C176.107 89.9997 177.168 91.4639 178.484 92.7064C178.974 93.1683 179.502 93.5587 180.135 93.7157C180.683 93.852 181.422 94.0159 181.794 93.6349C182.147 93.2746 181.572 92.7526 181.378 92.3208C179.766 88.7456 178.299 85.1474 178.255 81.1172C178.246 80.2858 178.135 79.4729 178.299 78.6368C178.641 76.8885 179.976 75.7684 181.794 75.773C183.597 75.7753 184.964 76.8908 185.228 78.6853C185.6 81.2096 185.477 83.8194 186.597 86.2074C186.676 86.376 186.671 86.5885 187.032 86.7409C187.844 84.9557 188.708 83.1866 189.461 81.369C190.53 78.7846 191.637 76.191 192.048 73.4057C192.565 69.8976 193.209 66.3686 192.597 62.8073C192.272 60.9158 190.969 59.4354 190.145 57.7541C189.692 56.8303 189.066 55.9896 188.484 55.1328C186.921 52.8233 187.096 49.9664 190.112 48.6222C190.242 48.5645 190.348 48.4513 190.542 48.3081C189.801 47.6176 188.868 47.449 188.057 47.0772C183.556 45.0032 179.147 42.793 175.142 39.8183C173.096 38.2986 171.511 36.4095 170.186 34.3055C168.712 31.9659 166.941 29.9936 164.627 28.4439C162.308 26.8896 160.209 24.9958 157.724 23.6978C156.306 22.9565 154.834 22.3583 153.054 22.8248C151.566 23.2151 150.121 22.8087 149.109 21.3721C148.354 20.3005 147.104 19.737 146.153 18.8386C142.215 15.1133 137.314 12.8038 132.767 9.98387C130.557 8.61432 127.891 8.46882 125.4 7.91915C122.129 7.19858 118.787 7.04384 115.455 7.22629C113.143 7.35332 111.12 8.48729 109.157 9.6028C106.491 11.1178 103.923 12.7992 101.431 14.5868C100.99 14.9032 100.496 15.1895 100.514 15.8177C100.577 18.0256 98.1471 19.5268 95.6205 18.8594C94.6297 18.5961 93.8583 17.9425 92.9391 17.5568C90.8906 16.6977 88.7196 16.4528 86.5602 16.245C84.6179 16.0579 82.701 15.723 80.7702 15.4782C79.0612 15.2611 77.3591 15.0048 75.6315 15.0579C72.7562 15.1457 69.8439 14.6999 67.0124 15.3189C64.6613 15.8316 62.4303 16.8224 60.2616 17.8547C59.2801 18.3213 58.7004 19.4414 58.1623 20.4021C57.1992 22.1227 55.7073 23.2105 54.0814 24.1828C50.7626 26.1667 47.2521 27.8942 44.2543 30.3285C42.1457 32.0421 39.6722 33.0676 37.5313 34.6565C35.9955 35.7951 34.5566 37.0654 32.9931 38.1601C31.6235 39.1208 30.1824 40.0008 28.6951 40.7675C27.2147 41.532 26.2539 42.7445 25.1476 43.927C22.7249 46.5159 21.8427 49.8393 20.2907 52.844C17.8795 57.5139 15.3298 62.1099 12.1912 66.3455C11.3644 67.461 11.4267 67.3779 12.6277 68.1169C15.152 69.6712 15.801 72.0547 13.1958 74.9739C11.9741 76.3435 10.9371 77.7777 10.5353 79.5953C10.2119 81.0549 10.5145 82.5422 10.7778 83.9302C11.1473 85.8656 11.496 87.8518 12.3505 89.674C12.4614 89.9096 12.5099 90.2145 12.8309 90.2745C13.1265 90.3299 13.2374 90.0921 13.3275 89.8865C14.2213 87.8518 17.0273 87.4708 18.8034 88.6001C19.6694 89.1521 20.5678 89.6579 21.4593 90.1683C22.1845 90.584 22.7827 91.1637 23.0252 91.9397C23.8682 94.6418 25.695 96.8728 26.6026 99.5311C27.9398 103.453 29.4064 107.321 30.9884 111.15C33.0254 116.079 35.0093 121.028 37.4251 125.79C37.8223 126.573 38.4366 126.758 39.2311 126.911C41.3674 127.319 43.4506 127.978 45.6216 128.262C47.5523 128.516 49.4993 128.488 51.4323 128.82C54.8273 129.405 58.0237 130.516 61.1254 131.941C62.913 132.761 63.0146 132.793 62.8414 130.853C62.6543 128.767 62.2663 126.693 61.8714 124.633C61.3587 121.959 61.0515 119.268 61.033 116.55C61.0076 112.716 61.1577 108.894 61.4303 105.062C61.8183 99.5888 64.1209 94.9097 66.7283 90.2838C68.0263 87.9788 69.4097 85.7132 70.2873 83.1958C70.412 82.8355 70.5159 82.3667 70.7885 82.175C72.1419 81.2258 71.9987 79.9094 71.897 78.519C71.7169 76.0178 72.3243 73.6875 73.4352 71.4242C74.0357 70.2047 74.2597 68.8029 74.6708 67.4887C75.6431 64.3894 78.172 64.2115 80.0081 65.0845C81.2206 65.6596 82.0243 67.498 81.701 68.8052C81.1305 71.1078 80.4515 73.3619 79.5693 75.5859C78.9665 77.1033 78.8487 78.8724 79.8649 80.5237C81.4308 83.0711 82.7749 85.7455 83.932 88.9258L83.9204 88.9165Z" fill="#1B0F1E"/>
<path d="M177.01 100.466C177.892 104.201 177.92 108.018 178.109 111.82C178.133 112.284 178.174 112.732 178.313 113.171C180.576 109.577 181.819 105.679 181.886 101.413C181.892 101.011 181.722 100.926 181.433 100.951C179.925 101.088 178.472 100.739 177.01 100.466Z" fill="#272224"/>
<path d="M146.604 204.273C147.53 202.915 147.253 201.501 145.893 200.642C144.514 199.774 142.992 200.113 142.241 201.499C142.008 201.931 141.906 202.231 141.253 202.046C140.077 201.714 139.121 202.185 138.618 203.139C138.098 204.12 138.331 205.072 139.313 205.993C140.511 206.848 141.537 206.513 142.467 205.531C142.708 204.45 143.315 204.591 144.022 205.065C144.992 205.162 145.842 204.862 146.602 204.273H146.604Z" fill="#0E1A1E"/>
<path d="M136.654 206.471C137.571 205.169 137.506 203.825 136.485 202.975C135.469 202.127 133.638 202.33 132.594 203.407C131.665 204.363 131.684 205.568 132.642 206.679C134.051 208.005 135.358 207.349 136.654 206.471Z" fill="#0E1A1E"/>
<path d="M129.197 207.037C129.287 205.586 127.943 204.686 126.91 204.72C125.619 204.762 124.804 205.623 124.712 207.099C124.977 208.549 125.77 209.272 127.042 209.226C128.213 209.185 129.017 208.369 129.197 207.037Z" fill="#0E1A1E"/>
<path d="M144.021 205.065C143.315 204.591 142.707 204.45 142.467 205.531C143.054 205.605 143.601 205.543 144.021 205.065Z" fill="#ECC3AE"/>
<path d="M87.1049 124.741C87.1049 126.972 88.2273 128.467 90.5276 129.046C95.0289 130.183 99.5509 131.245 104.064 132.337C104.325 132.4 104.588 132.46 104.849 132.518C107.586 133.125 108.089 133.723 108.343 136.538C108.542 138.726 108.946 140.876 109.747 142.929C110.466 144.772 111.436 146.469 112.891 147.839C116.286 151.031 121.26 149.899 122.914 145.56C123.75 143.363 124.224 141.07 124.734 138.786C125.025 137.481 125.535 136.275 126.589 135.416C127.875 134.368 128.263 133.053 127.861 131.506C127.427 129.829 126.429 128.633 124.676 128.203C120.875 127.273 117.076 126.33 113.267 125.425C106.583 123.834 99.8974 122.266 93.209 120.691C92.8348 120.603 92.4584 120.531 92.0796 120.471C89.1835 120.012 87.1049 121.799 87.1049 124.741Z" fill="#0C181C"/>
<path d="M142.051 135.85C143.705 135.682 145.569 135.056 147.449 134.532C149.481 133.963 151.486 133.298 153.513 132.719C155.003 132.291 155.624 132.732 155.698 134.282C155.86 137.599 156.213 140.876 157.555 143.959C157.86 144.659 158.206 145.361 158.65 145.978C160.352 148.336 163.433 148.407 165.232 146.118C167.239 143.566 168.103 140.541 168.583 137.4C168.962 134.931 169.234 132.448 169.532 129.968C169.701 128.559 170.209 127.367 171.509 126.645C172.301 126.203 172.636 125.39 172.712 124.642C173.075 121.019 170.456 118.73 167.299 119.573C162.37 120.887 157.5 122.42 152.613 123.882C148.643 125.069 144.679 126.273 140.723 127.508C137.982 128.365 136.936 130.513 137.88 133.201C138.513 134.998 139.823 135.901 142.049 135.857L142.051 135.85Z" fill="#0C181C"/>
<path d="M113.882 186.475C118.69 186.18 123.483 185.889 128.146 184.551C129.82 184.071 131.441 183.501 132.827 182.404C133.471 181.893 134.023 181.295 134.194 180.461C134.386 179.524 134.153 178.69 133.374 178.089C132.564 177.463 131.594 177.318 130.781 177.895C126.695 180.801 121.926 180.928 117.229 181.281C114.432 181.491 111.616 181.475 108.81 181.565C108.503 181.574 108.194 181.588 107.891 181.637C106.388 181.877 105.498 182.845 105.556 184.161C105.612 185.457 106.598 186.411 108.113 186.461C110.034 186.526 111.958 186.478 113.88 186.478L113.882 186.475Z" fill="#0E1A1E"/>
<path d="M42.3347 138.947C42.404 141.044 44.2262 142.915 46.6674 143.375C48.933 143.802 51.1917 144.236 53.3234 145.171C55.8708 146.289 58.2519 147.673 60.4298 149.405C61.804 150.497 62.7301 150.659 63.5338 150.005C64.3883 149.312 64.4345 148.098 63.5869 146.645C62.3005 144.444 60.2335 143.102 58.1503 141.772C53.9377 139.081 49.2355 137.883 44.3671 137.208C42.8797 137.003 42.2862 137.575 42.3324 138.945L42.3347 138.947Z" fill="#272224"/>
<path d="M158.698 183.734C160.312 183.734 161.927 183.745 163.541 183.727C164.038 183.722 164.546 183.697 165.028 183.584C166.16 183.318 166.904 182.35 166.894 181.251C166.883 180.142 166.144 179.216 164.989 178.958C164.469 178.84 163.922 178.798 163.389 178.805C158.042 178.858 152.707 178.574 147.37 178.339C146.718 178.311 146.067 178.26 145.425 178.463C144.36 178.803 143.718 179.493 143.672 180.627C143.626 181.766 144.22 182.521 145.257 182.916C146.093 183.235 146.991 183.265 147.869 183.297C151.478 183.436 155.088 183.542 158.698 183.657C158.698 183.683 158.698 183.706 158.698 183.731V183.734Z" fill="#0E1A1E"/>
</svg>
